<svg width="276" height="314" viewBox="0 0 276 314" fill="none" xmlns="http://www.w3.org/2000/svg">
<path d="M118.868 213.836C118.868 213.836 125.077 137.158 109.997 135.564C100.886 134.601 81.3718 202.467 79.4398 209.668C77.4548 216.864 118.868 213.836 118.868 213.836Z" fill="#FCD375"/>
<path d="M118.87 214.312C119.085 214.282 119.259 214.141 119.286 213.88C119.516 210.73 125.389 136.715 109.995 135.088C105.858 134.651 99.8448 145.864 91.5168 169.369C85.2888 187.065 79.9038 205.803 78.9268 209.508C78.7438 210.229 78.8808 210.932 79.3488 211.51C80.5658 213.014 84.2328 213.878 88.7888 214.359C100.355 215.635 117.858 214.364 118.87 214.312ZM80.1488 210.96C79.8688 210.613 79.7498 210.23 79.9048 209.77C85.2608 189.813 102.413 135.186 110.005 135.988C123.933 137.46 118.96 207.498 118.493 213.373C108.512 214.116 83.4298 214.956 80.1488 210.96Z" fill="#FCD375"/>
<path d="M122.457 217.495L130.766 165.848L115.834 154.907C112.317 165.061 103.705 201.655 93.8118 210.025C83.9758 218.348 122.457 217.495 122.457 217.495Z" fill="#E8AE37"/>
<path d="M104.046 217.348C111.848 218.173 120.814 218.01 122.459 217.972C122.674 217.942 122.848 217.801 122.923 217.598L131.232 165.95C131.249 165.793 131.213 165.63 131.067 165.509L116.135 154.568C116.036 154.505 115.884 154.436 115.716 154.524C115.554 154.56 115.49 154.659 115.421 154.81C114.658 157.004 113.645 160.547 112.414 164.648C108.224 179.122 101.148 203.289 93.5248 209.73C92.0138 210.998 91.4608 212.209 91.8728 213.311C92.7548 215.467 98.0758 216.717 104.046 217.348ZM94.1448 210.377C102 203.749 108.782 180.345 113.293 164.847C114.38 161.1 115.307 157.866 116.07 155.672L130.262 166.112L122.077 217.085C114.065 217.243 94.2038 216.784 92.7608 212.929C92.5188 212.215 92.9808 211.365 94.1448 210.377Z" fill="#E8AE37"/>
<path d="M106.988 211.804C105.382 230.361 134.844 278.916 134.844 278.916L219.753 251.441L247.645 136.791C247.645 136.791 205.256 110.146 182.14 111.882C159.076 113.623 156.628 116.221 156.628 116.221C156.628 116.221 106.822 124.394 107.061 137.063C107.305 149.679 117.519 163.666 117.519 163.666C117.519 163.666 108.543 193.241 106.988 211.804Z" fill="#4461AB"/>
<path d="M106.517 211.754C105.844 219.565 110.368 233.268 119.914 252.528C127.024 266.822 134.408 279.029 134.45 279.139C134.543 279.255 134.642 279.318 134.799 279.335C134.852 279.34 134.904 279.346 134.962 279.299L219.871 251.824C220.034 251.788 220.155 251.642 220.172 251.485L248.064 136.835C248.086 136.626 248.05 136.463 247.852 136.336C247.753 136.273 237.079 129.59 223.724 123.206C205.731 114.639 191.754 110.623 182.091 111.347C161.428 112.92 157.221 115.12 156.416 115.723C153.074 116.269 106.356 124.292 106.59 137.013C106.813 148.833 115.79 162.002 117.042 163.669C116.264 166.496 108.018 194.191 106.517 211.754ZM118.032 163.826C118.101 163.675 118.06 163.565 117.966 163.449C117.872 163.333 107.805 149.467 107.585 137.118C107.337 125.03 156.246 116.816 156.781 116.766C156.886 116.777 156.95 116.678 157.007 116.632C157.123 116.538 160.032 114.095 182.189 112.416C184.165 112.254 186.225 112.313 188.424 112.546C210.681 114.898 243.763 134.952 247.14 137.055L219.414 251.141L135.057 278.409C132.537 274.228 105.97 229.312 107.46 211.853C108.986 193.552 117.946 164.134 118.032 163.826Z" fill="#4461AB"/>
<path d="M221.848 255.207C235.052 243.113 223.963 149.368 223.963 149.368C215.484 156.883 208.199 168.597 205.186 194.887C202.178 221.124 192.544 233.013 185.643 237.151C178.741 241.288 149.767 248.806 142.477 245.655C135.182 242.556 140.231 266.735 140.231 266.735C140.231 266.735 208.644 267.301 221.848 255.207Z" fill="#244698"/>
<path d="M140.181 267.206C140.233 267.212 140.233 267.212 140.181 267.206C140.391 267.228 157.536 267.348 176.111 265.978C201.092 264.122 216.558 260.625 222.129 255.554C227.706 250.43 229.779 230.971 228.288 197.751C227.156 173.087 224.418 149.575 224.393 149.308C224.358 149.145 224.27 148.977 224.113 148.961C223.961 148.892 223.798 148.928 223.625 149.068C216.547 155.355 207.967 166.298 204.714 194.837C201.378 224.161 190.065 233.915 185.368 236.751C178.577 240.847 149.718 248.271 142.627 245.247C141.514 244.759 140.554 244.817 139.801 245.425C136.087 248.471 139.362 264.951 139.743 266.843C139.826 267.063 140.024 267.19 140.181 267.206ZM140.415 246.124C140.705 245.89 141.088 245.772 141.507 245.817C141.769 245.844 142.025 245.924 142.328 246.062C149.775 249.229 178.796 241.77 185.871 237.492C190.679 234.615 202.282 224.626 205.663 194.884C208.793 167.496 216.791 156.545 223.601 150.282C224.704 159.815 233.77 243.718 221.515 254.854C209.076 266.235 145.998 266.287 140.596 266.298C139.56 261.11 137.686 248.375 140.415 246.124Z" fill="#244698"/>
<path d="M138.743 291.732L152.483 306.472L223.316 295.965L138.743 291.732Z" fill="#191446"/>
<path d="M152.438 306.891C152.49 306.896 152.49 306.896 152.543 306.902L223.318 296.441C223.533 296.411 223.713 296.218 223.688 295.951C223.658 295.736 223.465 295.557 223.256 295.535L138.688 291.25C138.478 291.228 138.31 291.316 138.235 291.52C138.166 291.671 138.196 291.886 138.29 292.002L152.03 306.742C152.228 306.869 152.333 306.88 152.438 306.891ZM218.68 296.216L152.637 306.012L139.798 292.267L218.68 296.216Z" fill="#191446"/>
<path d="M152.485 306.47L147.518 312.825L222.53 303.343L223.316 295.964L152.485 306.47Z" fill="#C0C3D6"/>
<path d="M147.578 313.255L222.538 303.767C222.753 303.737 222.927 303.597 222.949 303.388L223.735 296.008C223.752 295.851 223.711 295.741 223.617 295.625C223.523 295.51 223.366 295.493 223.262 295.482L152.489 305.941C152.378 305.982 152.268 306.024 152.205 306.123L147.237 312.478C147.115 312.624 147.093 312.833 147.181 313.001C147.275 313.117 147.368 313.232 147.525 313.249L147.578 313.255ZM152.761 306.87L222.783 296.49L222.098 302.927L148.591 312.197L152.761 306.87Z" fill="#C0C3D6"/>
<path d="M175.552 297.163C184.639 288.919 161.334 247.204 152.598 252.153C152.598 252.153 149.196 249.783 148.64 261.468C147.978 273.142 166.465 305.407 175.552 297.163Z" fill="#283A84"/>
<path d="M168.985 298.162C169.894 298.575 170.762 298.878 171.6 298.967C173.171 299.133 174.599 298.649 175.827 297.562C181.978 292.023 174.106 272.465 165.748 260.949C160.439 253.616 155.66 250.255 152.538 251.723C152.182 251.58 151.612 251.467 151.049 251.778C149.372 252.605 148.387 255.887 148.105 261.517C147.609 271.145 159.408 293.605 168.985 298.162ZM151.448 252.507C151.669 252.425 151.831 252.389 151.988 252.406C152.198 252.428 152.297 252.491 152.349 252.497C152.495 252.618 152.658 252.582 152.826 252.494C155.419 251.023 159.994 254.31 165.069 261.353C174.066 273.836 180.495 292.025 175.277 296.763C173.696 298.183 171.719 298.345 169.399 297.253C160.278 292.904 148.613 270.67 149.064 261.46C149.375 254.563 150.717 252.906 151.448 252.507Z" fill="#283A84"/>
<path d="M167.295 295.07C169.122 275.953 156.634 259.979 153.383 256.197C143.461 257.371 133.832 262.756 133.832 262.756C133.832 262.756 132.554 296.586 147.059 298.118C154.123 298.917 161.57 297.111 167.295 295.07Z" fill="#F9C09D"/>
<path d="M167.46 295.511C167.623 295.475 167.75 295.277 167.767 295.12C169.594 276.002 157.502 260.282 153.731 255.916C153.637 255.8 153.486 255.731 153.323 255.767C143.401 256.941 133.719 262.321 133.609 262.362C133.493 262.455 133.372 262.601 133.355 262.758C133.309 264.182 132.242 297.03 147.009 298.589C152.973 299.272 159.866 298.201 167.46 295.511ZM134.275 263.067C135.737 262.269 144.365 257.837 153.17 256.703C157.029 261.237 168.438 276.409 166.852 294.759C159.484 297.314 152.859 298.36 147.099 297.752C133.856 296.301 134.208 266.181 134.275 263.067Z" fill="#F9C09D"/>
<path d="M177.527 290.548C177.527 290.548 175.442 260.438 163.226 256.82C160.145 255.912 156.766 255.82 153.384 256.257C156.634 260.038 169.127 275.959 167.295 295.128C173.298 292.958 177.527 290.548 177.527 290.548Z" fill="#E68262"/>
<path d="M166.829 295.026C166.813 295.183 166.9 295.351 167 295.414C167.046 295.472 167.151 295.483 167.256 295.494C167.308 295.5 167.413 295.511 167.471 295.464C173.468 293.347 177.697 290.936 177.755 290.89C177.923 290.801 177.992 290.65 177.956 290.488C177.875 289.262 175.749 260.046 163.328 256.354C160.452 255.521 157.084 255.325 153.277 255.769C153.114 255.805 152.946 255.893 152.929 256.05C152.86 256.201 152.896 256.364 152.984 256.532C156.707 260.84 168.617 276.275 166.829 295.026ZM163.076 257.227C174.21 260.572 176.773 287.188 177.025 290.283C176.068 290.817 172.535 292.666 167.798 294.388C169.182 276.441 158.479 261.609 154.251 256.56C157.617 256.28 160.561 256.485 163.076 257.227Z" fill="#E68262"/>
<path d="M164.747 246.059C164.747 246.059 191.16 269.534 189.02 297.079C189.02 297.079 259.363 301.393 271.719 273.393C284.076 245.393 263.341 128.359 243.276 136.765C231.69 141.624 214.596 152.46 210.28 175.068C205.913 197.67 211.482 229.892 211.482 229.892C211.482 229.892 161.086 236.679 164.747 246.059Z" fill="#FCD375"/>
<path d="M164.612 243.347C164.035 244.291 163.987 245.238 164.358 246.229C164.405 246.287 164.452 246.345 164.498 246.403C164.545 246.461 171.173 252.345 177.398 261.52C183.119 269.953 189.728 282.977 188.653 297.041C188.642 297.145 188.677 297.308 188.776 297.371C188.87 297.487 188.975 297.498 189.08 297.509C189.237 297.525 206.921 298.548 225.869 296.16C251.42 292.936 267.006 285.326 272.232 273.553C277.181 262.385 277.199 234.88 272.326 203.578C267.453 172.276 259.193 146.911 251.264 138.826C248.541 136.052 245.775 135.177 243.168 136.277C230.364 141.642 214.143 152.729 209.873 174.919C205.84 195.863 210.321 225.378 211.003 229.418C206.104 230.17 169.199 235.579 164.612 243.347ZM211.537 230.373C211.647 230.332 211.757 230.291 211.821 230.192C211.884 230.093 211.896 229.988 211.912 229.831C211.841 229.506 206.417 197.406 210.694 175.164C214.92 153.393 230.804 142.482 243.44 137.205C245.715 136.229 248.116 137.065 250.552 139.544C267.567 156.789 281.918 249.238 271.311 273.244C259.726 299.474 195.596 296.981 189.541 296.658C190.47 282.474 183.855 269.502 178.087 261.011C172.179 252.346 165.965 246.558 165.141 245.836C164.894 245.175 165.013 244.553 165.405 243.854C169.998 236.034 211.112 230.382 211.537 230.373Z" fill="#FCD375"/>
<path d="M152.166 147.454C168.119 148.346 191.858 112.446 191.858 112.446C194.603 108.557 163.58 106.442 155.705 114.233C147.831 122.025 136.213 146.561 152.166 147.454Z" fill="#191446"/>
<path d="M151.382 147.847C151.644 147.874 151.854 147.897 152.115 147.924C158.853 148.319 167.684 142.48 178.326 130.591C186.138 121.893 192.07 112.945 192.255 112.7C192.688 112.111 192.551 111.408 191.92 110.866C188.323 107.84 162.824 106.574 155.372 113.881C152.292 116.941 148.809 122.287 146.548 127.603C143.809 133.926 143.066 139.403 144.386 142.928C145.452 145.845 147.821 147.47 151.382 147.847ZM155.986 114.58C161.018 109.61 175.131 108.88 183.982 109.815C187.596 110.197 190.385 110.862 191.308 111.647C191.699 111.953 191.577 112.099 191.508 112.251C191.26 112.595 167.686 147.93 152.21 147.035C148.574 146.862 146.299 145.352 145.257 142.703C142.489 135.374 149.889 120.602 155.986 114.58Z" fill="#191446"/>
<path d="M79.7648 39.7351C77.4338 47.6916 94.8298 52.4394 94.8298 52.4394C89.8798 57.6321 89.8298 60.5902 91.7738 62.2244C95.4098 60.9149 99.9478 56.1022 101.473 53.723C101.617 53.3678 101.761 53.0126 101.957 52.6629C101.934 52.8722 101.733 53.2742 101.473 53.723C99.5868 58.4984 104.976 59.1204 104.976 59.1204C104.976 59.1204 106.365 61.4899 107.663 64.2201C120.872 66.5147 187.31 77.765 191.69 73.9411C196.539 69.6904 203.855 39.822 200.058 36.1928C196.261 32.5636 193.259 40.3435 193.259 40.3435C193.259 40.3435 190.264 10.8149 180.582 7.72847C170.901 4.64217 169.765 13.3071 169.765 13.3071C169.765 13.3071 139.491 -2.80283 129.148 0.814766C118.805 4.43227 124.077 12.6096 124.077 12.6096C124.077 12.6096 101.547 12.2941 91.1308 19.0792C80.7088 25.9166 94.6928 32.368 94.6928 32.368C94.6928 32.368 82.0968 31.7786 79.7648 39.7351Z" fill="#504566"/>
<path d="M79.3578 39.5862C78.9338 41.0761 79.0918 42.5745 79.9418 44.0402C82.6568 48.8781 91.4478 51.8704 94.0628 52.6759C91.3608 55.6715 90.1028 58.026 90.2108 59.9954C90.2618 61.0063 90.6968 61.8989 91.5198 62.6209C91.6658 62.7422 91.8228 62.7588 91.9858 62.7231C95.0168 61.6144 98.6078 58.2363 100.679 55.7031C100.665 56.3366 100.865 56.9399 101.181 57.4496C102.125 59.031 104.088 59.5029 104.763 59.6271C105.121 60.247 106.281 62.2748 107.368 64.5064C107.409 64.6166 107.555 64.7378 107.712 64.7544C115.146 66.0687 134.502 69.33 153.028 71.9217C160.699 72.9965 166.816 73.7483 171.74 74.2683C190.019 76.1988 191.485 74.8717 192.064 74.4037C196.154 70.8138 201.417 51.2599 201.595 41.6471C201.645 38.6889 201.259 36.8488 200.394 36.0166C199.43 35.121 198.463 34.7543 197.429 35.0155C195.692 35.4141 194.311 37.438 193.52 38.8892C192.759 32.6171 189.319 10.2389 180.715 7.47795C177.488 6.44915 174.824 6.59125 172.782 7.85735C170.567 9.26395 169.728 11.6627 169.449 12.7974C165.181 10.6003 138.805 -2.82237 129.019 0.536553C125.61 1.71115 123.46 3.49505 122.674 5.89935C121.761 8.50185 122.755 11.0942 123.313 12.3174C119.184 12.3046 100.286 12.6902 90.8858 18.8946C88.0378 20.7636 86.6568 22.7875 86.8468 24.9773C87.0828 28.2304 90.6718 30.8321 92.8648 32.1221C89.1538 32.1535 81.2018 33.2188 79.3578 39.5862ZM94.5788 32.9381C94.7878 32.9602 95.0148 32.8254 95.0368 32.6161C95.1118 32.4123 94.9768 32.1863 94.7728 32.1118C94.7208 32.1063 87.9118 28.9 87.6548 24.8509C87.5308 23.0385 88.7268 21.2597 91.2848 19.6247C101.474 12.9745 123.748 13.21 124.01 13.2377C124.167 13.2543 124.335 13.1662 124.404 13.0147C124.473 12.8633 124.49 12.7063 124.402 12.5382C124.408 12.4859 122.363 9.30635 123.437 6.19155C124.137 4.09575 126.108 2.50465 129.244 1.40695C139.308 -2.08123 169.191 13.7228 169.494 13.8606C169.646 13.9295 169.803 13.9461 169.919 13.8525C170.034 13.7589 170.15 13.6653 170.167 13.5083C170.173 13.456 170.676 10.2281 173.234 8.59305C175.049 7.46175 177.445 7.34435 180.416 8.29315C189.69 11.2307 192.747 40.1834 192.765 40.5029C192.796 40.7178 192.936 40.8914 193.145 40.9136C193.355 40.9357 193.581 40.8008 193.65 40.6494C194.093 39.4789 195.707 36.2625 197.602 35.8804C198.305 35.743 199.021 35.9774 199.74 36.6884C200.126 37.0466 200.747 38.1707 200.641 41.6522C200.413 51.736 194.955 70.6343 191.392 73.7507C188.119 76.6332 144.464 70.2764 108.005 63.9915C106.749 61.3715 105.406 59.06 105.354 59.0545C105.26 58.9387 105.161 58.8753 105.004 58.8587C105.004 58.8587 102.705 58.563 101.855 57.0973C101.409 56.3094 101.41 55.3041 101.8 54.1281C102.124 53.5801 102.326 53.1781 102.359 52.8641C102.381 52.6548 102.247 52.4288 102.043 52.3543C101.839 52.2799 101.618 52.3624 101.491 52.5607C101.295 52.9104 101.093 53.3125 101.007 53.621C99.6668 55.755 95.3608 60.3806 91.8188 61.8058C91.2928 61.274 91.0338 60.7174 91.0018 60.026C90.9238 58.2714 92.2978 55.8234 95.1578 52.8444C95.2738 52.7508 95.2958 52.5415 95.2548 52.4313C95.2188 52.2687 95.0728 52.1475 94.9158 52.1309C94.8108 52.1198 83.5468 48.9722 80.6618 43.7458C79.9468 42.506 79.8188 41.2224 80.1618 39.9886C82.4078 32.3406 94.4738 32.9271 94.5788 32.9381Z" fill="#504566"/>
<path d="M101.951 52.6895C101.75 53.0913 101.554 53.4408 101.468 53.7491C101.78 53.3061 101.923 52.951 101.951 52.6895Z" fill="#191446"/>
<path d="M101.418 54.2202C101.575 54.2368 101.743 54.1488 101.864 54.0029C102.187 53.4552 102.389 53.0533 102.423 52.7394C102.445 52.5301 102.31 52.3043 102.106 52.2299C101.902 52.1554 101.682 52.2379 101.555 52.4361C101.359 52.7857 101.157 53.1876 101.013 53.5427C100.939 53.7464 101.015 54.0191 101.219 54.0935C101.313 54.2092 101.365 54.2147 101.418 54.2202Z" fill="#191446"/>
<path d="M91.7708 62.2468C95.2688 65.2091 105.419 63.8996 105.419 63.8996C105.419 63.8996 106.251 64.0405 107.706 64.3C106.409 61.57 105.019 59.2009 105.019 59.2009C105.019 59.2009 99.6358 58.5265 101.516 53.8039C99.9448 56.125 95.4118 60.885 91.7708 62.2468Z" fill="#191446"/>
<path d="M101.672 53.3439C101.473 53.2171 101.2 53.2942 101.073 53.4925C99.6748 55.6732 95.1898 60.491 91.6068 61.8059C91.4438 61.8417 91.3218 61.9875 91.3058 62.1445C91.2888 62.3015 91.3248 62.4641 91.4708 62.5853C92.7788 63.7288 94.9448 64.2751 97.1968 64.5129C100.863 64.9001 104.776 64.4667 105.369 64.3705L107.604 64.7654C107.761 64.782 107.924 64.7461 108.045 64.6002C108.167 64.4543 108.183 64.2974 108.095 64.1293C106.798 61.3994 105.356 59.0247 105.362 58.9724C105.268 58.8567 105.169 58.7932 105.012 58.7766C105.012 58.7766 102.713 58.481 101.863 57.0154C101.417 56.2275 101.418 55.2221 101.867 53.9995C101.952 53.691 101.87 53.4707 101.672 53.3439ZM104.713 59.5917C105.029 60.1013 105.962 61.7873 106.924 63.6881L105.521 63.4341C105.469 63.4286 105.417 63.4231 105.364 63.4176C105.26 63.4065 96.5048 64.5456 92.7198 62.2939C95.6158 60.9593 98.7488 57.9036 100.635 55.6157C100.62 56.2491 100.821 56.8524 101.137 57.362C102.023 58.9901 104.038 59.4674 104.713 59.5917Z" fill="#191446"/>
<path d="M192.81 69.5347C189.836 58.6916 176.612 59.0412 174.175 65.5034C171.738 71.9655 169.689 68.839 169.689 68.839C167.645 60.6869 157.252 47.8966 157.252 47.8966C131.075 59.4708 132.43 45.2754 132.43 45.2754C120.324 63.9439 104.116 59.0049 104.116 59.0049C104.116 59.0049 113.873 99.611 127.497 111.896C141.121 124.181 151.848 114.468 151.848 114.468C151.848 114.468 152.03 114.751 152.305 115.151C154.303 113.298 158.722 109.109 160.13 106.824C161.746 104.085 158.443 115.693 154.599 120.949C154.956 122.573 154.986 124.27 154.441 125.905C152.731 131.016 150.356 136.902 159.451 134.053C168.546 131.204 183.533 114.321 180.025 108.978C176.464 103.628 177.205 88.733 177.205 88.733C187.423 89.759 195.732 80.3722 192.81 69.5347Z" fill="#F9C09D"/>
<path d="M190.212 83.9689C193.596 80.0406 194.695 74.707 193.251 69.3695C191.536 63.1038 186.611 60.6261 182.603 60.4674C178.49 60.2977 174.951 62.199 173.773 65.3021C172.583 68.5098 171.574 69.0382 171.091 69.093C170.609 69.1479 170.281 68.7429 170.141 68.5694C168.045 60.4117 158.085 48.0373 157.664 47.5167C157.523 47.3431 157.314 47.321 157.146 47.409C143.86 53.3075 137.975 52.3688 135.367 50.5062C132.712 48.5856 132.959 45.2783 132.959 45.2783C132.981 45.069 132.841 44.8955 132.637 44.821C132.433 44.7466 132.213 44.8292 132.091 44.9751C125.946 54.4318 118.719 57.6369 113.745 58.5931C108.335 59.6621 104.329 58.4982 104.329 58.4982C104.177 58.4293 104.009 58.5174 103.893 58.611C103.777 58.7045 103.703 58.9084 103.738 59.0709C104.141 60.7536 113.676 99.961 127.254 112.188C139.523 123.272 149.648 116.722 151.834 115.101C151.88 115.159 151.921 115.269 151.963 115.379C152.056 115.495 152.155 115.558 152.307 115.627C152.412 115.638 152.574 115.603 152.69 115.509C154.741 113.662 158.105 110.419 159.886 108.121C159.097 111.053 156.845 117.27 154.36 120.712C154.296 120.811 154.279 120.968 154.268 121.072C154.66 122.86 154.598 124.44 154.138 125.768L153.909 126.431C152.83 129.597 151.739 132.869 153.27 134.406C153.697 134.874 154.308 135.097 155.146 135.186C156.298 135.308 157.809 135.044 159.778 134.458C166.846 132.242 177.975 121.248 180.617 113.855C181.38 111.66 181.407 109.917 180.582 108.719C177.531 104.058 177.725 91.804 177.789 89.218C182.472 89.501 187.122 87.6109 190.212 83.9689ZM177.314 88.215C177.209 88.204 177.046 88.24 176.983 88.339C176.867 88.433 176.856 88.537 176.844 88.642C176.83 89.275 176.191 103.705 179.741 109.159C180.379 110.126 180.327 111.602 179.65 113.488C177.077 120.73 166.302 131.39 159.396 133.571C156.492 134.482 154.632 134.55 153.872 133.729C152.727 132.55 153.8 129.435 154.73 126.676L154.959 126.013C155.435 124.529 155.504 122.896 155.175 121.009C158.354 116.53 161.47 107.177 160.988 106.227C160.9 106.059 160.754 105.937 160.545 105.915C160.178 105.877 159.982 106.226 159.792 106.524C158.504 108.663 154.497 112.472 152.493 114.377C152.405 114.209 152.358 114.151 152.358 114.151C152.265 114.035 152.113 113.967 152.009 113.955C151.904 113.944 151.741 113.98 151.678 114.079C151.266 114.459 141.105 123.333 127.908 111.516C115.539 100.369 106.22 65.0999 104.846 59.611C106.295 59.9228 109.63 60.4337 113.907 59.5626C118.881 58.6063 125.933 55.5416 132.122 46.6714C132.302 47.9603 132.939 49.9323 134.807 51.2934C138.792 54.1481 146.307 53.1957 157.139 48.4665C158.63 50.37 167.434 61.6699 169.253 68.9517C169.247 69.0041 169.294 69.0619 169.294 69.0619C169.341 69.1197 170.026 70.1444 171.148 70.0513C172.38 69.9169 173.537 68.5047 174.583 65.6522C175.617 62.9043 178.814 61.2314 182.502 61.4092C186.243 61.5926 190.766 63.869 192.322 69.6417C193.694 74.6542 192.629 79.674 189.476 83.4151C186.451 86.958 182.027 88.713 177.314 88.215Z" fill="#F9C09D"/>
<path d="M160.2 106.774C158.844 109.065 154.369 113.3 152.377 115.1C153.004 116.171 154.148 118.355 154.676 120.844C158.513 115.642 161.815 104.036 160.2 106.774Z" fill="#E68262"/>
<path d="M154.573 121.309C154.625 121.315 154.625 121.315 154.573 121.309C154.783 121.331 154.951 121.243 155.014 121.144C158.233 116.776 161.428 107.169 160.947 106.219C160.859 106.051 160.713 105.929 160.504 105.907C160.137 105.869 159.941 106.218 159.751 106.515C158.395 108.806 153.919 113.041 152.043 114.747C151.869 114.887 151.842 115.149 151.982 115.322C152.609 116.394 153.758 118.525 154.24 120.957C154.27 121.171 154.416 121.293 154.573 121.309ZM159.851 108.06C159.142 110.736 157.12 116.288 154.892 119.809C154.354 117.901 153.527 116.226 152.947 115.213C155.002 113.314 158.186 110.265 159.851 108.06Z" fill="#E68262"/>
<path d="M164.65 219.909C168.411 221.893 192.556 224.921 193.489 221.634C194.421 218.347 195.511 186.245 195.511 186.245C185.169 190.866 167.405 185.603 167.405 185.603C167.25 188.549 160.89 217.924 164.65 219.909Z" fill="#E46790"/>
<path d="M164.449 220.311C166.251 221.294 172.118 222.391 178.088 223.022C184.216 223.669 190.451 223.799 192.779 222.828C193.388 222.575 193.8 222.196 193.902 221.73C194.835 218.443 195.902 187.556 195.936 186.237C195.953 186.081 195.865 185.912 195.713 185.844C195.562 185.775 195.405 185.758 195.294 185.799C185.23 190.29 167.712 185.212 167.508 185.137C167.357 185.068 167.246 185.11 167.13 185.203C167.014 185.297 166.951 185.396 166.934 185.553C166.92 186.186 166.54 188.262 166.046 190.908C163.112 208.002 161.796 218.866 164.449 220.311ZM166.977 191.112C167.374 188.879 167.663 187.164 167.816 186.228C170.797 187.072 185.5 190.742 195.009 186.986C194.822 191.727 193.859 218.658 193.023 221.532C192.954 221.683 192.775 221.876 192.391 221.994C188.067 223.812 168.31 221.353 164.8 219.501C162.246 218.12 165.59 199.165 166.977 191.112Z" fill="#E46790"/>
<path d="M193.006 294.938C195.482 292.079 197.686 276.864 191.388 265.883C185.148 254.854 181.598 249.401 168.785 246.883C163.237 245.767 151.434 249.175 150.713 252.961C150.713 252.961 161.963 255.737 168.681 269.725C175.4 283.714 174.059 294.312 172.804 297.141C171.549 299.971 190.53 297.798 193.006 294.938Z" fill="#2893D0"/>
<path d="M172.849 298.204C173.246 298.458 173.916 298.634 174.806 298.729C179.782 299.254 191.348 297.567 193.344 295.239C196.069 292.035 197.986 276.526 191.782 265.66C185.454 254.464 181.8 248.999 168.882 246.469C164.521 245.638 156.66 247.347 152.665 250.046C151.296 250.959 150.504 251.934 150.288 252.969C150.26 253.23 150.395 253.456 150.604 253.478C150.709 253.49 161.738 256.348 168.281 270.001C174.653 283.265 173.783 293.912 172.396 296.992C172.194 297.394 172.354 297.887 172.849 298.204ZM169.076 269.503C163.091 257.073 153.477 253.359 151.275 252.65C151.552 252.044 152.153 251.367 153.122 250.729C156.885 248.217 164.537 246.486 168.688 247.295C181.239 249.786 184.8 255.135 190.999 266.053C197.197 276.971 194.847 292.065 192.666 294.638C190.555 297.06 175.481 298.853 173.352 297.464C173.201 297.395 173.206 297.343 173.264 297.296C174.386 294.716 176.146 284.163 169.076 269.503Z" fill="#2893D0"/>
<path d="M147.478 312.808L130.901 207.498L1.59039 200.775L0.434692 201.182L18.387 291.608L146.625 313.353L147.478 312.808Z" fill="#C0C3D6"/>
<path d="M18.2898 292.021L146.528 313.766C146.528 313.766 146.528 313.766 146.58 313.772C146.685 313.783 146.795 313.741 146.853 313.694L147.758 313.155C147.926 313.067 148.001 312.863 147.966 312.701L131.388 207.391C131.358 207.176 131.212 207.055 130.951 207.027L1.64048 200.304C1.58808 200.298 1.53568 200.293 1.47778 200.34L0.32208 200.747C0.10138 200.829 -0.0257199 201.028 0.00438008 201.242L17.9567 291.669C17.9867 291.883 18.1327 292.005 18.2898 292.021ZM1.64478 201.257L130.483 207.931L146.976 312.543L146.466 312.86L18.7457 291.223L0.930379 201.499L1.64478 201.257Z" fill="#C0C3D6"/>
<path d="M155.076 308.11L140.258 202.193L7.4793 198.702L1.5907 200.779L130.9 207.502L147.477 312.811L155.076 308.11Z" fill="#9FA3B5"/>
<path d="M1.54039 201.25L130.483 207.934L146.995 312.866C147.03 313.028 147.124 313.144 147.275 313.213C147.328 313.218 147.38 313.224 147.433 313.229C147.537 313.24 147.648 313.199 147.706 313.152L155.304 308.452C155.472 308.363 155.547 308.16 155.511 307.997L140.694 202.08C140.664 201.866 140.471 201.687 140.256 201.717L7.47699 198.225C7.42459 198.22 7.37219 198.214 7.31429 198.261L1.42569 200.338C1.20499 200.42 1.07799 200.619 1.10799 200.833C1.19049 201.054 1.27849 201.222 1.54039 201.25ZM7.5337 199.184L139.894 202.631L154.627 307.851L147.875 312.059L131.383 207.447C131.353 207.232 131.207 207.111 130.997 207.089L3.95079 200.499L7.5337 199.184Z" fill="#9FA3B5"/>
<path d="M143.406 88.288C144.453 88.399 145.471 88.295 146.516 87.9291C151.742 86.1008 153.793 78.2768 151.082 70.4255C149.785 66.6913 147.635 63.5016 144.991 61.4765C142.254 59.3357 139.256 58.6485 136.672 59.5392C134.088 60.4299 132.139 62.8162 131.352 66.2244C130.529 69.4702 130.809 73.3084 132.106 77.0427C134.235 83.4041 138.902 87.812 143.406 88.288ZM133.052 66.6686C133.72 63.8825 135.194 61.9752 137.226 61.2907C137.993 61.0544 138.748 60.9226 139.586 61.0112C141 61.1606 142.416 61.7863 143.835 62.8884C146.181 64.7234 148.149 67.6293 149.322 71.0331C151.715 77.8985 150.142 84.715 145.851 86.2188C141.56 87.7226 136.096 83.3363 133.702 76.4709C132.582 73.0726 132.321 69.5537 133.052 66.6686Z" fill="#191446"/>
<path d="M120.34 97.427C121.387 97.538 122.41 97.381 123.298 96.999C125.521 96.017 126.946 93.575 127.251 90.222C127.539 87.0249 126.824 83.299 125.249 79.6939C123.675 76.0888 121.346 73.0919 118.802 71.1303C116.054 69.0942 113.359 68.5451 111.084 69.5217C106.58 71.5326 105.719 79.1128 109.133 86.827C111.87 92.936 116.308 97.002 120.34 97.427ZM111.812 71.1329C112.422 70.8798 113.125 70.7424 113.858 70.8199C115.062 70.947 116.327 71.5038 117.698 72.548C120.003 74.2727 122.138 77.0904 123.589 80.365C125.04 83.6396 125.731 87.0984 125.476 89.981C125.239 92.707 124.194 94.554 122.581 95.283C119.134 96.824 113.706 92.6 110.804 86.0512C107.901 79.502 108.365 72.6734 111.812 71.1329Z" fill="#191446"/>
<path d="M129.153 88.84C130.254 87.9507 131.529 86.9214 131.671 85.085C131.859 82.83 130.328 79.8116 126.756 75.5725C126.428 75.1676 125.846 75.1591 125.493 75.4921C125.088 75.8196 125.079 76.4006 125.412 76.7531C128.563 80.4716 130.07 83.223 129.944 84.9025C129.826 86.0011 129.015 86.6561 128.088 87.4046C127.219 88.106 126.292 88.855 125.85 90.025C125.551 90.84 125.677 91.647 126.134 92.33C127.24 93.875 130.191 94.504 132.39 94.736C133.489 94.852 134.437 94.899 134.809 94.886C135.286 94.883 135.697 94.503 135.753 93.98C135.751 93.504 135.424 93.099 134.848 93.038C132.312 92.982 128.396 92.463 127.623 91.27C127.535 91.102 127.447 90.934 127.591 90.579C127.763 89.962 128.406 89.395 129.153 88.84Z" fill="#62392C"/>
<path d="M132.322 75.4732C132.805 75.4184 133.169 74.9806 133.115 74.4986C133.06 74.0166 132.622 73.653 132.14 73.7079C127.913 74.1082 125.149 75.1921 123.802 76.9018C122.882 78.0746 123.038 79.0965 123.027 79.2011C123.087 79.6308 123.426 79.9311 123.792 79.9699C123.845 79.9754 123.95 79.9864 124.002 79.992C124.484 79.9371 124.849 79.4994 124.794 79.0174C124.863 78.8659 124.729 76.153 132.322 75.4732Z" fill="#191446"/>
<path d="M148.689 67.5377C148.794 67.5488 148.847 67.5543 148.957 67.513C149.12 67.4772 165.745 64.5749 173.406 65.7552C173.924 65.863 174.388 65.4883 174.438 65.0171C174.494 64.4936 174.172 64.0359 173.7 63.9861C165.783 62.7258 149.367 65.6503 148.664 65.7877C148.176 65.895 147.864 66.3384 147.918 66.8207C147.984 67.1983 148.323 67.4989 148.689 67.5377Z" fill="#191446"/>
<path d="M120.16 85.7172C119.661 85.929 117.618 84.232 115.868 81.7723C115.592 81.3729 115.022 81.2597 114.622 81.5348C114.222 81.81 114.108 82.3801 114.383 82.7794C115.162 83.9198 117.718 87.2583 119.865 87.485C120.18 87.5182 120.499 87.499 120.778 87.3697C122.438 86.6985 122.885 83.9947 122.087 78.5669C122.033 78.085 121.543 77.7158 121.06 77.7707C120.578 77.8255 120.208 78.3156 120.262 78.7975C121.274 85.2001 120.16 85.7172 120.16 85.7172Z" fill="#62392C"/>
<path d="M142.672 78.2651C141.633 78.5786 138.932 75.5951 137.175 72.7112C136.905 72.2595 136.335 72.1463 135.935 72.4215C135.482 72.6912 135.368 73.2612 135.644 73.6606C136.593 75.1894 139.597 79.7921 142.32 80.0797C142.634 80.1129 142.954 80.0937 143.227 80.0167C145.254 79.3842 145.996 76.3939 145.695 70.2778C145.693 69.8014 145.261 69.3854 144.726 69.4348C144.249 69.4373 143.833 69.8695 143.881 70.4037C144.176 77.5773 142.835 78.2294 142.672 78.2651Z" fill="#62392C"/>
<path d="M137.911 104.629C138.697 104.712 139.499 104.638 140.277 104.297C141.833 103.615 142.75 101.965 143.07 99.459C143.126 98.936 142.798 98.5309 142.28 98.4229C141.867 98.3269 141.351 98.6959 141.243 99.2129C140.995 101.039 140.448 102.198 139.502 102.628C138.109 103.274 135.946 102.199 135.252 101.756C134.855 101.502 134.262 101.598 134.008 101.995C133.754 102.391 133.85 102.983 134.246 103.237C134.293 103.295 135.973 104.425 137.911 104.629Z" fill="#62392C"/>
<path d="M182.48 67.1424C182.025 66.9357 181.474 67.1419 181.267 67.5962L177.593 75.726C177.46 75.9765 177.479 76.296 177.614 76.5218C177.749 76.7477 177.994 76.9322 178.308 76.9654L184.958 77.6677C185.482 77.723 185.893 77.3432 185.943 76.8723C185.994 76.4015 185.619 75.9387 185.148 75.889L179.702 75.314L182.828 68.3431C183.146 67.8476 182.934 67.3491 182.48 67.1424Z" fill="#62392C"/>
<path d="M109.122 67.4669C109.437 67.5001 109.715 67.3709 109.9 67.1258C109.958 67.079 111.353 65.4269 114.744 65.4146C115.221 65.4121 115.637 64.9799 115.635 64.5034C115.633 64.0269 115.201 63.6108 114.724 63.6133C110.431 63.6363 108.545 65.9243 108.482 66.0234C108.175 66.4144 108.224 66.9487 108.61 67.3069C108.761 67.3759 108.913 67.4448 109.122 67.4669Z" fill="#62392C"/>
<path d="M129.199 59.0164C129.565 59.0551 129.954 58.8845 130.098 58.5292C130.103 58.4769 131.563 55.7207 135.623 55.885C136.1 55.8824 136.564 55.508 136.562 55.0316C136.559 54.5551 136.29 54.1034 135.708 54.0949C130.49 53.8613 128.61 57.5786 128.489 57.7245C128.282 58.1788 128.435 58.7242 128.89 58.9309C128.989 58.9943 129.094 59.0053 129.199 59.0164Z" fill="#62392C"/>
</svg>
