<svg width="181" height="367" viewBox="0 0 181 367" fill="none" xmlns="http://www.w3.org/2000/svg">
<path d="M103.952 133.398C103.952 133.398 113.207 107.067 108.323 105.084C103.438 103.138 81.184 107.031 75.271 106.737C69.359 106.443 62.6747 98.107 56.248 97.372C49.8213 96.638 35.7927 102.881 34.691 104.386C33.5893 105.929 34.8379 109.528 34.691 112.833C34.3972 119.37 103.952 133.398 103.952 133.398Z" fill="#F9C09D"/>
<path d="M103.879 133.692C103.916 133.692 103.916 133.692 103.952 133.692C104.099 133.692 104.209 133.619 104.246 133.472C105.201 130.754 113.464 106.774 108.433 104.79C105.348 103.542 95.726 104.57 87.206 105.488C82.212 106.039 77.474 106.516 75.271 106.406C72.407 106.259 69.322 104.129 66.09 101.926C62.8583 99.723 59.5531 97.446 56.2847 97.078C49.9314 96.381 35.7559 102.44 34.4339 104.24C33.6627 105.268 33.883 106.994 34.1401 109.014C34.287 110.262 34.4338 111.584 34.3971 112.833C34.0666 119.407 96.754 132.26 103.879 133.692ZM34.948 104.607C35.9395 103.248 48.4257 97.666 55.1462 97.666C55.5134 97.666 55.8807 97.703 56.2479 97.739C59.3695 98.07 62.6011 100.31 65.7594 102.477C69.101 104.754 72.223 106.92 75.271 107.067C77.548 107.177 82.065 106.7 87.316 106.149C95.322 105.305 105.274 104.203 108.212 105.415C111.958 106.92 106.34 125.613 103.732 133.068C75.895 127.449 34.8011 117.46 34.9847 112.906C35.0582 111.584 34.8745 110.262 34.7276 108.977C34.544 107.104 34.3604 105.415 34.948 104.607Z" fill="#F9C09D"/>
<path d="M50.9601 119.664C54.3754 116.285 63.0422 117.203 63.0422 117.203C63.0422 117.203 60.8755 105.635 60.0676 103.983C59.2596 102.367 43.652 104.717 43.1378 106.627C42.6237 108.573 47.5447 123.042 50.9601 119.664Z" fill="#CE5041"/>
<path d="M49.8581 120.472C50.3355 120.472 50.7762 120.251 51.1801 119.884C54.4486 116.652 62.9318 117.497 63.0052 117.497C63.1154 117.497 63.1889 117.46 63.2624 117.387C63.3358 117.313 63.3725 117.203 63.3358 117.13C63.2624 116.652 61.1691 105.488 60.3245 103.836C59.9572 103.101 57.8639 102.918 54.0814 103.322C50.5926 103.689 43.2477 104.937 42.807 106.553C42.3296 108.426 45.6715 118.378 48.7931 120.178C49.1603 120.398 49.4909 120.472 49.8581 120.472ZM43.4314 106.737C43.6518 105.966 48.4626 104.57 54.1548 103.946C55.5136 103.799 56.5786 103.762 57.3865 103.762C58.9289 103.762 59.6634 103.946 59.7368 104.129C60.3611 105.341 61.8301 112.76 62.6013 116.836C60.8019 116.689 53.7875 116.359 50.7027 119.443C50.2253 119.921 49.7112 119.994 49.0869 119.627C46.2224 117.938 43.0642 108.169 43.4314 106.737Z" fill="#CE5041"/>
<path d="M106.891 140.927C109.021 137.659 105.275 116.102 105.275 116.102C105.275 116.102 91.797 125.319 77.218 120.802C62.6382 116.285 104.761 144.159 106.891 140.927Z" fill="#E68262"/>
<path d="M98.518 138.466C103.145 140.927 105.238 141.515 106.23 141.515C106.891 141.515 107.038 141.257 107.148 141.111C109.314 137.805 105.715 116.946 105.569 116.065C105.532 115.955 105.495 115.881 105.385 115.844C105.275 115.808 105.165 115.808 105.091 115.881C104.944 115.955 91.54 124.952 77.291 120.545C75.161 119.884 74.133 119.884 73.876 120.508C73.729 120.876 73.251 122.051 82.212 128.404C87.427 132.003 93.67 135.896 98.518 138.466ZM74.463 120.655C74.463 120.655 74.537 120.582 74.831 120.582C75.198 120.582 75.859 120.655 77.107 121.059C90.255 125.136 102.667 118.048 105.054 116.579C106.34 124.144 108.249 138.283 106.634 140.707C106.56 140.78 105.862 141.478 99.803 138.356C95.102 135.932 88.565 131.93 83.13 128.11C75.675 122.932 74.353 120.986 74.463 120.655Z" fill="#E68262"/>
<path d="M44.6069 112.833L43.5786 109.418C43.5786 109.418 39.7226 111.438 38.7678 112.796C37.8129 114.229 44.6069 112.833 44.6069 112.833Z" fill="#CE5041"/>
<path d="M40.0162 113.751C41.375 113.751 43.3581 113.421 44.6802 113.127C44.7536 113.127 44.8271 113.053 44.9006 112.98C44.974 112.907 44.9739 112.796 44.9372 112.723L43.9089 109.308C43.8722 109.234 43.7988 109.161 43.7253 109.124C43.6519 109.087 43.5417 109.087 43.4683 109.124C43.3214 109.197 39.5021 111.181 38.5473 112.613C38.3269 112.943 38.4004 113.2 38.4738 113.311C38.6207 113.641 39.2083 113.751 40.0162 113.751ZM43.3948 109.895L44.2027 112.576C41.8524 113.017 39.2818 113.274 39.0247 112.98C39.7592 111.952 42.44 110.446 43.3948 109.895Z" fill="#CE5041"/>
<path d="M54.9625 104.607C54.9625 104.607 56.0643 101.118 57.0191 100.053C56.1745 100.787 54.4116 102.807 53.8241 105.415C53.0896 108.683 54.9625 104.607 54.9625 104.607Z" fill="#CE5041"/>
<path d="M57.3863 99.796C57.2761 99.833 57.1292 99.943 57.019 100.053C57.1659 99.943 57.3128 99.833 57.3863 99.796Z" fill="#CE5041"/>
<path d="M53.7508 107.031C53.9711 107.031 54.3384 106.737 55.2565 104.754V104.717C55.8808 102.771 56.652 101.008 57.1662 100.347C57.3131 100.237 57.4232 100.127 57.4966 100.09C57.6068 100.09 57.717 100.016 57.7904 99.906C57.8272 99.796 57.8272 99.649 57.717 99.576C57.6436 99.502 57.4599 99.465 57.3498 99.465C57.3131 99.465 57.2763 99.502 57.2396 99.502C57.1294 99.539 56.9825 99.649 56.8723 99.759C55.9175 100.53 54.1181 102.697 53.4938 105.341C53.2734 106.37 53.2367 106.847 53.6039 106.957C53.6407 107.031 53.6774 107.031 53.7508 107.031ZM54.118 105.525C54.3751 104.46 54.8158 103.505 55.2932 102.697C55.0361 103.395 54.8158 104.019 54.6689 104.497C54.4853 104.864 54.3017 105.268 54.118 105.635C54.118 105.598 54.118 105.562 54.118 105.525Z" fill="#CE5041"/>
<path d="M50.0784 89.623C48.3523 98.584 46.1489 116.762 46.1489 116.762L51.5107 118.305C51.5107 118.305 54.522 100.42 55.7339 91.349C53.3836 90.064 51.4372 89.66 50.0784 89.623Z" fill="#191446"/>
<path d="M51.4373 118.635C51.474 118.635 51.5108 118.635 51.5108 118.635C51.5843 118.635 51.621 118.635 51.6944 118.599C51.7679 118.562 51.8413 118.489 51.8413 118.378C51.878 118.195 54.8894 100.384 56.0646 91.423C56.0646 91.276 56.0279 91.166 55.9177 91.092C53.4205 89.697 51.3639 89.33 50.1153 89.293C49.9317 89.256 49.8214 89.403 49.7847 89.55C48.0587 98.4 45.892 116.542 45.8553 116.726C45.8185 116.873 45.9287 117.02 46.0756 117.056L51.4373 118.635ZM50.3356 89.954C51.5107 90.027 53.2735 90.395 55.4035 91.57C54.3018 99.869 51.6944 115.404 51.2537 117.938L46.4796 116.542C46.7733 114.302 48.7564 98.29 50.3356 89.954Z" fill="#191446"/>
<path d="M56.1743 86.2815C55.55 85.4736 53.567 84.3351 51.5104 84.7758C51.1432 84.8493 50.629 86.759 50.0781 89.623C51.4369 89.697 53.3833 90.064 55.7337 91.386C56.1376 88.485 56.3212 86.4651 56.1743 86.2815Z" fill="#E46790"/>
<path d="M55.5869 91.68C55.6236 91.717 55.6971 91.717 55.7338 91.717C55.7706 91.717 55.844 91.717 55.8807 91.68C55.9909 91.643 56.0276 91.533 56.0643 91.423C56.7254 86.4284 56.5785 86.2448 56.4316 86.0612C55.6971 85.1064 53.5671 83.9679 51.4371 84.4453C51.1433 84.5188 50.7026 84.5922 49.7478 89.55C49.7111 89.623 49.7478 89.734 49.8212 89.807C49.8947 89.881 49.9682 89.917 50.0416 89.917C51.2535 89.991 53.1998 90.321 55.5869 91.68ZM51.584 85.0697C53.5671 84.629 55.3666 85.7307 55.9175 86.3917C55.9542 86.5754 55.9542 87.3833 55.5135 90.872C53.4202 89.77 51.6575 89.403 50.4823 89.293C51.18 85.694 51.5473 85.1431 51.584 85.0697Z" fill="#E46790"/>
<path d="M57.4598 113.714C60.1039 114.412 65.6125 119.407 69.395 119.627C73.141 119.847 73.141 106.443 73.141 106.443C73.141 106.443 61.4627 98.621 58.8186 99.319C56.1744 100.016 55.4766 103.983 55.4766 103.983C54.5585 106.223 41.8521 110.373 40.8238 114.045C39.7955 117.717 49.7844 118.709 49.7844 118.709C49.7844 118.709 54.8157 113.017 57.4598 113.714Z" fill="#F9C09D"/>
<path d="M49.7111 119.039C49.8213 119.039 49.9314 119.003 49.9682 118.929C51.3637 117.387 55.3667 113.457 57.3865 114.008C58.378 114.265 59.9204 115.257 61.5362 116.285C64.1069 117.938 67.0081 119.774 69.358 119.921C69.395 119.921 69.432 119.921 69.469 119.921C69.946 119.921 70.423 119.737 70.827 119.333C73.435 116.873 73.435 106.847 73.435 106.406C73.435 106.296 73.398 106.186 73.288 106.149C72.076 105.341 61.3893 98.254 58.7085 98.988C56.0276 99.723 55.2197 103.432 55.1463 103.872C54.7423 104.717 52.0615 106.113 49.4908 107.435C45.5613 109.454 41.1177 111.731 40.5301 113.935C40.3465 114.596 40.4567 115.183 40.8239 115.771C42.5132 118.305 49.4173 119.039 49.7111 119.039ZM41.1177 114.155C41.6686 112.209 46.1489 109.895 49.7845 108.022C53.2366 106.259 55.3666 105.121 55.7706 104.093C55.7706 104.056 55.7706 104.056 55.8073 104.019C55.8073 103.983 56.5051 100.237 58.9289 99.576C60.9487 99.062 69.542 104.35 72.884 106.553C72.884 107.875 72.7 116.726 70.497 118.856C70.203 119.15 69.873 119.296 69.505 119.26C67.3387 119.15 64.4742 117.313 61.977 115.734C60.2509 114.633 58.7452 113.678 57.6435 113.384C57.4599 113.347 57.2763 113.31 57.0927 113.31C54.4485 113.31 50.4456 117.57 49.7111 118.378C48.6828 118.268 42.807 117.46 41.4115 115.404C41.0443 115.036 40.9708 114.596 41.1177 114.155Z" fill="#F9C09D"/>
<path d="M123.784 89.036C123.784 89.036 115.705 65.0551 112.142 67.8461C112.142 67.8461 108.25 79.0102 110.306 89.036C112.363 99.062 123.784 89.036 123.784 89.036Z" fill="#FCD375"/>
<path d="M113.244 93.59C113.721 93.737 114.236 93.81 114.75 93.81C118.789 93.81 123.784 89.477 124.004 89.256C124.114 89.183 124.151 89.036 124.078 88.926C123.784 88.081 117.173 68.5439 113.207 67.332C112.767 67.1851 112.326 67.2585 111.959 67.5523C111.922 67.5891 111.885 67.6258 111.848 67.6992C111.812 67.8094 107.956 79.047 110.012 89.073C110.526 91.533 111.591 93.039 113.244 93.59ZM112.436 68.0298C112.62 67.9196 112.803 67.8829 113.024 67.9563C116.035 68.8744 121.47 83.1968 123.416 88.926C122.425 89.77 116.953 94.141 113.428 92.965C112.032 92.488 111.077 91.129 110.637 88.962C108.69 79.5978 112.069 69.1315 112.436 68.0298Z" fill="#FCD375"/>
<path d="M88.381 34.1335C97.122 29.0656 126.207 47.5378 126.207 47.5378C126.207 47.5378 129.476 47.3541 130.467 39.0178C131.496 30.6814 128.631 -0.423801 112.987 0.384099C97.342 1.192 86.141 17.8647 81.037 21.1332C75.969 24.4016 66.2002 26.8254 67.0081 32.334C67.8528 37.8059 79.641 39.2014 88.381 34.1335Z" fill="#191446"/>
<path d="M70.093 36.3001C74.133 38.2465 81.992 38.2465 88.565 34.3905C97.048 29.4695 125.767 47.6112 126.06 47.7948C126.097 47.8315 126.171 47.8315 126.244 47.8315C126.244 47.8315 126.244 47.8315 126.281 47.8315C126.428 47.8315 129.806 47.5377 130.835 39.0177C131.642 32.5543 130.21 12.6131 122.131 3.9463C119.523 1.1553 116.439 -0.166801 112.987 0.016799C101.308 0.641099 92.127 9.8956 86.068 16.0652C83.901 18.2686 82.212 19.9947 80.89 20.8026C79.531 21.684 77.805 22.4919 76.006 23.3366C71.121 25.6502 66.09 28.074 66.7143 32.2972C66.9714 33.9865 68.11 35.3453 70.093 36.3001ZM76.299 23.9609C78.099 23.0795 79.825 22.2716 81.257 21.3902C82.616 20.5088 84.342 18.7828 86.545 16.5426C92.531 10.4831 101.602 1.2654 113.06 0.677799C116.328 0.530899 119.23 1.7796 121.69 4.4237C129.512 12.7968 130.981 32.7746 130.21 38.981C129.329 46.1055 126.832 47.097 126.317 47.2072C124.408 45.9953 103.475 32.9215 92.421 32.9215C90.805 32.9215 89.373 33.2153 88.271 33.8396C81.881 37.5488 74.279 37.5855 70.387 35.7126C68.624 34.8679 67.5957 33.656 67.3754 32.2238C66.7878 28.4779 71.635 26.201 76.299 23.9609Z" fill="#191446"/>
<path d="M41.8526 178.753C41.8526 178.753 38.7677 181.507 38.8779 187.493C39.0248 193.479 55.367 194.874 55.367 194.874C55.367 194.874 44.6803 175.264 41.8526 178.753Z" fill="#191446"/>
<path d="M55.367 195.168C55.4772 195.168 55.5873 195.132 55.6241 195.021C55.6975 194.911 55.6975 194.801 55.6241 194.691C55.2568 194.03 46.6633 178.349 42.8073 177.982C42.3299 177.945 41.926 178.092 41.5955 178.496C41.3017 178.753 38.4005 181.58 38.5474 187.456C38.731 193.663 54.6692 195.132 55.367 195.168ZM39.2084 187.456C39.0615 181.727 42.0361 178.973 42.0728 178.973L42.1096 178.936C42.2565 178.753 42.4769 178.643 42.6972 178.643C42.7339 178.643 42.7706 178.643 42.7706 178.643C45.5984 178.9 52.1353 189.696 54.7794 194.471C51.8782 194.177 39.3186 192.487 39.2084 187.456Z" fill="#191446"/>
<path d="M104.099 245.664C104.136 245.701 109.02 254.367 115.41 264.063C116.769 261.933 118.091 259.105 119.009 255.249C114.015 251.87 108.763 248.455 104.099 245.664Z" fill="#FABA89"/>
<path d="M115.41 264.393C115.52 264.393 115.631 264.356 115.667 264.246C117.246 261.786 118.495 258.811 119.303 255.322C119.34 255.212 119.266 255.065 119.156 254.992C113.427 251.099 108.433 247.867 104.246 245.407C104.136 245.333 103.952 245.37 103.879 245.443C103.769 245.554 103.769 245.701 103.842 245.811C104.063 246.178 108.91 254.735 115.153 264.246C115.19 264.32 115.3 264.393 115.41 264.393ZM118.642 255.396C117.871 258.517 116.769 261.235 115.41 263.475C110.526 255.947 106.486 249.116 105.017 246.545C108.873 248.932 113.464 251.907 118.642 255.396Z" fill="#FABA89"/>
<path d="M56.9455 195.425C56.6885 188.154 46.2956 180.589 46.2956 180.589C46.2956 180.589 11.9219 188.521 14.1621 210.482C15.8881 227.412 39.6118 247.463 60.2507 261.455C60.9852 260.133 61.0954 258.187 59.6632 255.249C55.5868 246.876 42.8436 221.095 48.8296 217.056C54.1178 213.457 74.389 257.379 76.189 271.518C76.519 271.701 76.887 271.922 77.217 272.105C81.477 274.566 85.554 277.32 89.336 280.148L98.37 275.337C92.458 262.41 87.867 249.52 90.805 245.664C92.421 243.571 94.147 242.138 95.873 241.184C93.963 240.302 92.348 239.715 91.209 239.568C82.065 238.356 88.161 188.301 88.161 188.301L51.4369 181.544C58.1574 184.959 66.1633 194.875 66.1633 194.875C66.1633 194.875 57.2026 202.66 56.9455 195.425Z" fill="#FABA89"/>
<path d="M58.4514 198.033C57.7169 197.702 57.3129 196.821 57.2395 195.389C56.9457 188.044 46.8833 180.626 46.4793 180.295C46.4059 180.258 46.2957 180.222 46.2223 180.258C45.8917 180.332 11.5915 188.521 13.8317 210.482C15.7413 229.065 43.6148 250.548 60.0672 261.712C60.1407 261.749 60.2142 261.786 60.3243 261.749C60.3978 261.712 60.4712 261.676 60.5446 261.602C61.4627 259.986 61.2792 257.783 59.9571 255.102L59.6265 254.404C55.6236 246.178 43.4313 221.096 49.0133 217.276C49.3071 217.056 49.7111 217.056 50.1885 217.276C56.7988 220.251 74.243 258.701 75.895 271.481C75.895 271.591 75.969 271.664 76.042 271.701L77.07 272.289C81 274.566 85.076 277.247 89.189 280.331C89.263 280.368 89.3 280.405 89.373 280.405C89.41 280.405 89.483 280.405 89.52 280.368L98.554 275.557C98.701 275.484 98.774 275.3 98.701 275.153C91.356 259.068 88.712 248.932 91.099 245.811C92.531 243.938 94.184 242.469 96.057 241.441C96.167 241.367 96.24 241.257 96.204 241.147C96.204 241.037 96.13 240.926 96.02 240.853C93.964 239.898 92.384 239.347 91.283 239.2C88.785 238.87 85.958 234.133 86.582 213.457C86.949 200.971 88.455 188.448 88.492 188.301C88.528 188.117 88.418 187.97 88.235 187.934L51.5106 181.176C51.3637 181.14 51.2168 181.25 51.1433 181.397C51.1066 181.544 51.1433 181.691 51.2902 181.764C57.2762 184.812 64.4374 193.259 65.686 194.764C64.1436 196.16 60.3243 198.841 58.4514 198.033ZM66.3838 195.095C66.5307 194.985 66.5307 194.801 66.4205 194.654C66.1267 194.287 59.5164 186.134 53.2366 182.168L87.831 188.558C87.28 193.112 82.102 238.65 91.173 239.861C92.127 239.972 93.449 240.449 95.175 241.22C93.449 242.285 91.907 243.681 90.548 245.48C87.977 248.822 90.475 258.848 97.93 275.227L89.336 279.817C85.297 276.806 81.257 274.125 77.327 271.848L76.409 271.334C74.61 257.93 57.2762 219.884 50.3721 216.762C49.6743 216.432 49.0868 216.468 48.5727 216.799C45.9285 218.598 46.3324 224.254 49.8947 234.022C52.7224 241.808 56.7988 250.181 59.0022 254.698L59.3327 255.396C60.4712 257.709 60.6915 259.582 60.104 261.015C43.725 249.887 16.3289 228.697 14.456 210.446C12.3627 189.733 43.7985 181.507 46.2223 180.919C47.3607 181.764 56.3581 188.815 56.6152 195.425C56.6886 197.115 57.2028 198.18 58.1943 198.62C60.9119 199.796 66.1635 195.279 66.3838 195.095Z" fill="#FABA89"/>
<path d="M139.648 269.865C139.648 269.865 133.185 265.054 124.849 259.288C124.114 261.418 122.241 266.56 120.001 270.93C124.518 277.393 129.329 283.563 133.405 287.272C136.49 282.461 138.914 276.659 139.648 269.865Z" fill="#C0C3D6"/>
<path d="M133.221 287.492C133.295 287.529 133.368 287.566 133.442 287.566H133.479C133.589 287.566 133.662 287.492 133.699 287.419C137.188 281.91 139.318 276.035 139.979 269.902C139.979 269.791 139.942 269.681 139.868 269.608C139.795 269.571 133.295 264.724 125.069 259.031C124.995 258.958 124.885 258.958 124.775 258.995C124.665 259.031 124.591 259.105 124.591 259.178C123.894 261.198 122.021 266.376 119.78 270.783C119.744 270.893 119.744 271.003 119.817 271.114C125.069 278.715 129.623 284.224 133.221 287.492ZM125.032 259.766C132.414 264.907 138.326 269.277 139.318 270.012C138.657 275.851 136.674 281.506 133.368 286.758C129.88 283.526 125.509 278.201 120.405 270.893C122.461 266.743 124.224 262.006 125.032 259.766Z" fill="#C0C3D6"/>
<path d="M119.009 255.249C118.091 259.105 116.769 261.933 115.41 264.063C116.108 265.091 116.806 266.156 117.503 267.221C119.266 264.283 121.176 260.574 121.947 257.232C120.955 256.571 120.001 255.91 119.009 255.249Z" fill="#C0C3D6"/>
<path d="M117.504 267.551C117.614 267.551 117.724 267.478 117.761 267.405C120.074 263.512 121.58 260.133 122.241 257.342C122.278 257.232 122.204 257.085 122.131 257.012C121.176 256.351 120.184 255.69 119.193 255.028C119.119 254.955 119.009 254.955 118.899 254.992C118.789 255.029 118.716 255.102 118.716 255.212C117.908 258.627 116.696 261.529 115.153 263.916C115.08 264.026 115.08 264.173 115.153 264.246C115.851 265.275 116.549 266.34 117.247 267.405C117.283 267.478 117.393 267.551 117.504 267.551ZM119.193 255.763C120.001 256.314 120.772 256.828 121.543 257.379C120.919 259.986 119.523 263.071 117.467 266.633C116.879 265.789 116.328 264.907 115.778 264.063C117.247 261.749 118.385 258.958 119.193 255.763Z" fill="#C0C3D6"/>
<path d="M98.37 275.337L89.336 280.148C98.371 286.905 105.752 294.176 110.306 298.95C107.037 292.964 102.41 284.151 98.37 275.337Z" fill="#C0C3D6"/>
<path d="M110.085 299.171C110.159 299.244 110.232 299.281 110.306 299.281C110.379 299.281 110.453 299.244 110.489 299.207C110.636 299.097 110.673 298.95 110.599 298.803C107.404 292.928 102.741 284.04 98.701 275.19C98.664 275.116 98.591 275.043 98.517 275.006C98.444 274.97 98.334 274.97 98.26 275.043L89.226 279.854C89.116 279.891 89.079 280.001 89.042 280.111C89.042 280.221 89.079 280.331 89.153 280.405C98.113 287.162 105.495 294.323 110.085 299.171ZM89.924 280.221L98.223 275.777C101.786 283.563 105.825 291.348 108.91 297.077C104.356 292.377 97.783 286.134 89.924 280.221Z" fill="#C0C3D6"/>
<path d="M115.41 264.063C109.057 254.331 104.136 245.701 104.099 245.664C101.051 243.828 98.223 242.285 95.873 241.184C94.147 242.138 92.421 243.571 90.805 245.664C87.867 249.557 92.458 262.41 98.37 275.337L108.616 269.865C108.616 269.865 112.215 268.984 115.41 264.063Z" fill="#F9AE82"/>
<path d="M98.297 275.631C98.334 275.631 98.37 275.631 98.407 275.631C98.444 275.631 98.517 275.631 98.554 275.594L108.726 270.159C108.873 270.122 112.436 269.167 115.667 264.209C115.741 264.099 115.741 263.952 115.667 263.879C109.461 254.367 104.577 245.847 104.393 245.48C104.356 245.444 104.32 245.407 104.283 245.37C101.014 243.424 98.223 241.918 96.057 240.89C95.983 240.853 95.873 240.853 95.763 240.89C93.817 241.955 92.09 243.497 90.622 245.444C88.051 248.822 90.585 258.921 98.15 275.447C98.15 275.557 98.187 275.594 98.297 275.631ZM91.099 245.847C92.494 244.011 94.11 242.579 95.91 241.551C98.04 242.542 100.721 244.011 103.879 245.884C104.393 246.766 109.094 254.955 115.043 264.063C111.995 268.653 108.616 269.535 108.506 269.571L98.554 274.896C91.283 258.995 88.712 248.969 91.099 245.847Z" fill="#F9AE82"/>
<path d="M117.504 267.221C116.806 266.156 116.108 265.091 115.41 264.063C112.215 268.947 108.653 269.865 108.653 269.865L98.407 275.337C102.447 284.151 107.074 292.964 110.343 298.987C113.501 302.329 115.264 304.459 115.264 304.459C115.264 304.459 126.171 298.693 133.442 287.272C129.366 283.6 124.555 277.43 120.038 270.93C118.752 273.464 117.32 275.778 115.925 277.1C111.408 281.36 114.052 272.472 114.052 272.472C114.052 272.472 115.668 270.269 117.504 267.221Z" fill="#9FA3B5"/>
<path d="M117.761 267.404C117.834 267.294 117.834 267.184 117.761 267.074C117.063 266.009 116.365 264.944 115.667 263.916C115.594 263.842 115.521 263.769 115.41 263.769C115.3 263.769 115.19 263.806 115.153 263.916C112.068 268.653 108.616 269.571 108.506 269.608L98.26 275.08C98.113 275.153 98.04 275.337 98.113 275.484C102.153 284.371 106.854 293.258 110.049 299.134C110.049 299.171 110.085 299.171 110.085 299.207C113.207 302.476 114.97 304.643 115.006 304.679C115.08 304.753 115.153 304.79 115.263 304.79C115.3 304.79 115.374 304.79 115.41 304.753C115.521 304.679 126.464 298.804 133.736 287.456C133.809 287.309 133.809 287.162 133.662 287.052C130.1 283.82 125.583 278.348 120.295 270.783C120.221 270.71 120.111 270.636 120.001 270.636C119.891 270.636 119.78 270.71 119.744 270.82C118.275 273.684 116.916 275.741 115.704 276.879C114.419 278.091 113.978 277.981 113.868 277.908C113.28 277.54 113.648 274.896 114.345 272.619C114.566 272.289 116.108 270.159 117.761 267.404ZM113.758 272.362C113.501 273.244 112.252 277.614 113.537 278.422C114.125 278.789 114.933 278.422 116.145 277.32C117.357 276.182 118.679 274.235 120.074 271.554C125.179 278.826 129.512 284.114 133.038 287.309C126.464 297.481 116.916 303.174 115.337 304.055C114.823 303.431 113.17 301.484 110.599 298.804C107.441 292.964 102.851 284.261 98.811 275.484L108.727 270.196C108.873 270.159 112.252 269.277 115.41 264.65C115.961 265.495 116.549 266.376 117.136 267.258C115.41 270.159 113.831 272.289 113.831 272.289C113.758 272.325 113.758 272.326 113.758 272.362Z" fill="#9FA3B5"/>
<path d="M76.152 271.518C74.353 257.379 54.0445 213.457 48.7929 217.056C42.8436 221.132 55.5869 246.876 59.6265 255.249C61.0588 258.187 60.9486 260.133 60.2141 261.455C65.9798 265.348 71.452 268.763 76.152 271.518Z" fill="#F9AE82"/>
<path d="M60.0672 261.712C65.3187 265.274 70.827 268.727 76.005 271.775C76.042 271.811 76.116 271.811 76.152 271.811C76.226 271.811 76.263 271.811 76.336 271.775C76.446 271.701 76.483 271.591 76.483 271.481C74.794 258.223 57.3497 219.884 50.4089 216.762C49.7111 216.432 49.1235 216.468 48.6093 216.799C45.9652 218.598 46.3692 224.254 49.9314 234.022C52.7592 241.808 56.8356 250.181 59.039 254.698L59.3695 255.396C60.5814 257.893 60.765 259.876 59.9571 261.308C59.8837 261.455 59.9203 261.639 60.0672 261.712ZM59.9203 255.102L59.5899 254.404C55.5869 246.178 43.3945 221.095 48.9766 217.276C49.2704 217.056 49.6743 217.056 50.1517 217.276C56.6886 220.214 73.655 257.452 75.748 270.857C70.827 267.955 65.6125 264.687 60.6181 261.308C61.3893 259.766 61.169 257.673 59.9203 255.102Z" fill="#F9AE82"/>
<path d="M46.2959 180.589L51.474 181.544C49.5644 180.552 47.7649 180.111 46.2959 180.589Z" fill="#E68262"/>
<path d="M51.4005 181.837C51.4372 181.837 51.4372 181.837 51.4739 181.837C51.6208 181.837 51.731 181.764 51.7677 181.617C51.8045 181.47 51.7677 181.323 51.6208 181.25C49.4541 180.148 47.6547 179.818 46.1857 180.258C46.0388 180.295 45.9653 180.442 45.9653 180.589C45.9653 180.736 46.0755 180.846 46.2224 180.883L51.4005 181.837Z" fill="#E68262"/>
<path d="M66.1637 194.875C66.1637 194.875 58.1578 184.959 51.4373 181.544L46.2593 180.589C46.2593 180.589 56.6155 188.191 56.9092 195.425C57.203 202.66 66.1637 194.875 66.1637 194.875Z" fill="#E68262"/>
<path d="M56.6154 195.425C56.6888 197.115 57.203 198.18 58.1945 198.62C58.525 198.767 58.8556 198.804 59.2228 198.804C62.0506 198.804 66.1637 195.242 66.384 195.095C66.5309 194.985 66.5308 194.801 66.4207 194.654C66.0902 194.25 58.3046 184.628 51.6209 181.25C51.5841 181.25 51.5474 181.213 51.5474 181.213L46.3694 180.258C46.2225 180.222 46.0756 180.295 46.0388 180.442C45.9654 180.589 46.0389 180.736 46.149 180.809C46.2225 180.919 56.3583 188.411 56.6154 195.425ZM51.3638 181.837C57.3498 184.886 64.4743 193.295 65.723 194.838C64.1071 196.16 60.3245 198.877 58.4516 198.069C57.7171 197.739 57.3131 196.858 57.2397 195.425C57.0193 189.403 50.1519 183.306 47.5078 181.14L51.3638 181.837Z" fill="#E68262"/>
<path d="M121.91 257.232C121.139 260.537 119.23 264.283 117.467 267.221C118.311 268.47 119.156 269.681 120.001 270.93C122.241 266.56 124.077 261.419 124.848 259.289C123.894 258.627 122.902 257.93 121.91 257.232Z" fill="#4C4566"/>
<path d="M120.037 271.224C120.184 271.224 120.258 271.15 120.331 271.04C122.608 266.597 124.481 261.382 125.179 259.362C125.216 259.215 125.179 259.068 125.069 258.995C124.114 258.334 123.122 257.636 122.131 256.975C122.057 256.901 121.947 256.901 121.837 256.938C121.727 256.975 121.653 257.048 121.653 257.159C121.029 259.876 119.523 263.218 117.246 267.037C117.173 267.147 117.173 267.258 117.246 267.368C118.091 268.616 118.936 269.828 119.78 271.077C119.817 271.187 119.927 271.224 120.037 271.224ZM122.131 257.783C122.939 258.334 123.71 258.885 124.481 259.435C123.747 261.529 122.021 266.193 119.964 270.342C119.266 269.314 118.532 268.286 117.834 267.258C120.001 263.622 121.433 260.427 122.131 257.783Z" fill="#4C4566"/>
<path d="M115.924 277.1C117.32 275.778 118.752 273.501 120.037 270.93C119.193 269.718 118.348 268.47 117.504 267.221C115.704 270.269 114.051 272.472 114.051 272.472C114.051 272.472 111.371 281.36 115.924 277.1Z" fill="#191446"/>
<path d="M114.015 278.569C114.566 278.569 115.227 278.165 116.145 277.32C117.43 276.108 118.826 274.015 120.331 271.077C120.368 270.967 120.368 270.857 120.295 270.746C119.45 269.535 118.605 268.286 117.761 267.037C117.687 266.964 117.577 266.89 117.504 266.89C117.394 266.89 117.283 266.964 117.247 267.037C115.484 270.012 113.831 272.215 113.831 272.252C113.795 272.289 113.795 272.326 113.795 272.362C113.538 273.244 112.289 277.614 113.574 278.422C113.684 278.532 113.831 278.569 114.015 278.569ZM114.345 272.619C114.566 272.289 115.961 270.379 117.504 267.808C118.201 268.837 118.936 269.902 119.67 270.93C118.238 273.721 116.916 275.704 115.704 276.843C114.419 278.054 113.978 277.944 113.868 277.871C113.28 277.54 113.648 274.896 114.345 272.619Z" fill="#191446"/>
<path d="M104.944 234.39C111.334 229.652 107.515 210.849 107.515 210.849C107.515 210.849 91.87 213.898 93.89 222.381C95.91 230.864 104.944 234.39 104.944 234.39Z" fill="#191446"/>
<path d="M104.834 234.72C104.871 234.72 104.907 234.757 104.944 234.757C105.018 234.757 105.091 234.72 105.128 234.683C111.591 229.873 107.992 211.621 107.809 210.849C107.772 210.666 107.625 210.556 107.441 210.592C107.037 210.666 97.636 212.539 94.404 217.533C93.413 219.076 93.119 220.765 93.56 222.528C95.616 231.048 104.724 234.683 104.834 234.72ZM94.955 217.864C97.709 213.604 105.605 211.657 107.258 211.253C107.698 213.714 110.379 229.652 104.871 234.022C103.659 233.508 95.983 229.946 94.184 222.344C93.817 220.765 94.074 219.223 94.955 217.864Z" fill="#191446"/>
<path d="M122.461 169.278C125.252 167.699 126.905 166.744 126.905 166.744L123.673 163.329C123.38 165.238 122.976 167.295 122.461 169.278Z" fill="#4461AB"/>
<path d="M122.608 169.572C125.399 167.993 127.052 167.038 127.052 167.038C127.125 167.001 127.199 166.891 127.199 166.817C127.199 166.707 127.199 166.634 127.125 166.56L123.894 163.145C123.82 163.072 123.673 163.035 123.563 163.072C123.453 163.108 123.379 163.218 123.343 163.329C123.049 165.422 122.645 167.405 122.168 169.241C122.131 169.351 122.168 169.498 122.278 169.572C122.351 169.608 122.388 169.645 122.461 169.645C122.498 169.608 122.572 169.572 122.608 169.572ZM123.857 164.026L126.391 166.67C125.84 167.001 124.628 167.662 122.939 168.654C123.306 167.185 123.637 165.642 123.857 164.026Z" fill="#4461AB"/>
<path d="M109.461 148.419C109.461 148.419 60.1042 166.303 57.9375 172.62C60.5082 172.95 64.254 174.125 70.093 182.535C83.387 176.88 98.517 168.764 99.656 166.34C101.566 162.264 98.995 161.052 92.642 158.628L115.668 154.955L109.461 148.419Z" fill="#4461AB"/>
<path d="M115.962 155.029C115.998 154.919 115.961 154.809 115.888 154.698L109.718 148.198C109.645 148.125 109.498 148.088 109.388 148.125C107.368 148.859 59.8472 166.12 57.6438 172.546C57.607 172.62 57.607 172.73 57.6804 172.803C57.7172 172.877 57.8274 172.95 57.9008 172.95C60.6918 173.281 64.2908 174.713 69.836 182.719C69.91 182.792 69.983 182.866 70.093 182.866C70.13 182.866 70.167 182.866 70.203 182.829C82.947 177.431 98.701 169.094 99.913 166.45C100.611 164.981 100.721 163.843 100.317 162.888C99.619 161.199 97.379 160.134 93.817 158.738L115.704 155.249C115.815 155.213 115.925 155.139 115.962 155.029ZM92.568 158.297C92.421 158.334 92.311 158.444 92.311 158.591C92.311 158.738 92.385 158.885 92.495 158.922C96.571 160.501 99.105 161.566 99.729 163.145C100.06 163.953 99.913 164.908 99.326 166.193C98.297 168.433 83.901 176.292 70.167 182.131C64.8416 174.493 61.206 172.803 58.3783 172.363C61.3896 167.221 92.679 154.809 109.351 148.786L114.97 154.698L92.568 158.297Z" fill="#4461AB"/>
<path d="M70.093 182.535C64.254 174.125 58.2681 172.436 58.3048 172.62C58.3048 172.62 54.3752 172.73 48.683 174.897C42.9908 177.063 40.6772 179.928 40.6772 179.928C42.8807 178.936 50.9599 182.168 56.5052 187.493C60.1777 186.501 64.9885 184.702 70.093 182.535Z" fill="#4C4566"/>
<path d="M40.7873 180.185C42.7704 179.267 50.7029 182.352 56.2849 187.713C56.3584 187.787 56.4318 187.787 56.5052 187.787C56.5419 187.787 56.5419 187.787 56.5786 187.787C60.0307 186.869 64.7681 185.143 70.203 182.829C70.277 182.792 70.35 182.719 70.387 182.609C70.424 182.535 70.387 182.425 70.35 182.352C64.8048 174.382 59.0024 172.179 58.2312 172.289C57.7171 172.326 53.9346 172.509 48.5361 174.566C42.8439 176.733 40.4936 179.561 40.3834 179.671C40.2732 179.781 40.2732 179.964 40.3834 180.075C40.4936 180.222 40.6771 180.258 40.7873 180.185ZM48.7565 175.19C54.3386 173.06 58.2313 172.95 58.268 172.95C58.3047 172.95 58.3047 172.95 58.3414 172.95C59.1493 173.06 64.4009 175.117 69.579 182.425C64.4009 184.628 59.8839 186.244 56.542 187.162C51.7679 182.645 44.9372 179.45 41.6688 179.45C41.632 179.45 41.5953 179.45 41.5586 179.45C42.6236 178.459 44.9005 176.659 48.7565 175.19Z" fill="#4C4566"/>
<path d="M124.408 153.523L115.667 154.919L123.673 163.328C124.445 157.967 124.408 153.523 124.408 153.523Z" fill="#283A84"/>
<path d="M123.673 163.953C123.747 163.953 123.82 163.953 123.857 163.916C124.077 163.843 124.261 163.659 124.298 163.402C125.069 158.04 125.032 153.523 125.032 153.487C125.032 153.303 124.959 153.119 124.812 153.009C124.665 152.899 124.481 152.825 124.298 152.862L115.557 154.258C115.337 154.294 115.117 154.441 115.043 154.662C114.97 154.882 115.007 155.139 115.19 155.286L123.196 163.696C123.306 163.879 123.49 163.953 123.673 163.953ZM123.747 154.258C123.71 155.58 123.637 158.481 123.196 161.933L116.916 155.359L123.747 154.258Z" fill="#283A84"/>
<path d="M70.093 182.535C71.085 183.967 72.113 185.547 73.252 187.346C74.427 189.219 75.271 190.908 75.859 192.451C90.842 186.795 113.06 174.566 122.462 169.278C122.976 167.295 123.38 165.238 123.674 163.329L115.668 154.919L92.642 158.591C98.995 161.015 101.566 162.264 99.656 166.303C98.518 168.764 83.387 176.916 70.093 182.535Z" fill="#283A84"/>
<path d="M69.946 182.241C69.873 182.278 69.8 182.352 69.763 182.462C69.726 182.535 69.763 182.645 69.799 182.719C70.864 184.225 71.893 185.804 72.958 187.53C74.059 189.292 74.941 191.018 75.565 192.561C75.602 192.671 75.749 192.745 75.859 192.745C75.896 192.745 75.932 192.745 75.969 192.708C91.063 187.016 113.611 174.603 122.609 169.498C122.682 169.461 122.756 169.388 122.756 169.315C123.233 167.478 123.637 165.459 123.967 163.329C123.967 163.218 123.967 163.145 123.894 163.072L115.888 154.662C115.815 154.588 115.705 154.552 115.594 154.552L92.568 158.224C92.421 158.261 92.311 158.371 92.311 158.518C92.311 158.665 92.385 158.812 92.495 158.848C96.571 160.427 99.105 161.492 99.73 163.072C100.06 163.879 99.913 164.834 99.326 166.12C98.297 168.433 83.755 176.402 69.946 182.241ZM99.913 166.487C100.611 165.018 100.721 163.879 100.317 162.925C99.619 161.235 97.379 160.17 93.817 158.775L115.521 155.286L123.306 163.475C123.013 165.459 122.645 167.368 122.168 169.094C113.171 174.162 91.026 186.355 76.043 192.083C75.418 190.541 74.574 188.925 73.509 187.236C72.517 185.62 71.526 184.151 70.571 182.719C83.24 177.284 98.701 169.094 99.913 166.487Z" fill="#283A84"/>
<path d="M75.859 192.451C75.271 190.945 74.427 189.256 73.252 187.346C72.113 185.547 71.085 183.968 70.093 182.535C64.9886 184.702 60.1778 186.501 56.5054 187.456C58.5252 189.403 60.2145 191.606 61.1326 193.993C62.1609 196.564 68.037 195.425 75.859 192.451Z" fill="#191446"/>
<path d="M64.2908 195.719C66.8248 195.719 70.718 194.728 76.006 192.745C76.079 192.708 76.153 192.671 76.189 192.561C76.226 192.487 76.226 192.414 76.189 192.304C75.565 190.688 74.684 188.962 73.545 187.163C72.48 185.436 71.452 183.857 70.387 182.352C70.314 182.241 70.13 182.168 70.02 182.241C64.5847 184.555 59.884 186.244 56.4687 187.163C56.3585 187.199 56.285 187.273 56.2483 187.383C56.2116 187.493 56.2483 187.603 56.3217 187.677C58.4884 189.77 60.0309 191.937 60.8756 194.103C61.2795 195.205 62.4179 195.719 64.2908 195.719ZM69.983 182.939C70.975 184.371 71.966 185.877 72.994 187.53C74.023 189.182 74.867 190.798 75.492 192.267C64.9519 196.197 62.0507 195.315 61.4631 193.883C60.6184 191.79 59.1862 189.66 57.1296 187.64C60.4715 186.722 64.8784 185.106 69.983 182.939Z" fill="#191446"/>
<path d="M131.643 292.34C133.001 294.507 138.987 301.301 146.075 305.083C147.581 302.917 148.94 300.787 149.968 298.987C152.906 293.736 157.974 282.976 160.177 278.238C159.149 276.145 140.75 265.128 138.033 265.311C135.278 265.532 137.298 268.176 137.298 268.176C136.894 275.814 133.92 281.176 130.835 284.702C130.835 284.665 129.623 289.108 131.643 292.34Z" fill="#4461AB"/>
<path d="M130.504 284.591C130.468 284.775 129.292 289.219 131.386 292.524C132.634 294.47 138.584 301.448 145.928 305.377C145.965 305.414 146.039 305.414 146.075 305.414C146.185 305.414 146.259 305.377 146.332 305.267C147.985 302.88 149.307 300.823 150.225 299.134C153.053 294.029 157.864 283.93 160.434 278.348C160.471 278.275 160.471 278.165 160.434 278.091C159.479 276.145 141.338 264.981 138.069 264.981C138.033 264.981 137.996 264.981 137.959 264.981C137.115 265.054 136.564 265.348 136.343 265.862C135.939 266.743 136.674 267.882 136.931 268.249C136.6 274.529 134.434 280.001 130.541 284.481C130.541 284.481 130.541 284.555 130.504 284.591ZM131.092 284.812C135.095 280.221 137.261 274.602 137.592 268.139C137.592 268.066 137.555 267.992 137.519 267.919C137.298 267.625 136.674 266.633 136.931 266.082C137.041 265.789 137.408 265.642 138.033 265.605C138.069 265.605 138.069 265.605 138.106 265.605C141.044 265.605 158.268 276.108 159.773 278.238C157.643 282.829 152.539 293.625 149.637 298.84C148.756 300.419 147.507 302.402 145.928 304.679C138.841 300.787 133.075 294.103 131.863 292.193C130.1 289.292 130.982 285.363 131.092 284.812Z" fill="#4461AB"/>
<path d="M160.177 278.238L160.141 278.201C157.937 282.939 152.869 293.699 149.931 298.95C148.94 300.75 147.544 302.88 146.039 305.047C148.315 306.259 150.739 307.177 153.126 307.507C160.104 296.38 166.935 284.555 166.861 283.196C166.788 280.735 160.177 278.238 160.177 278.238Z" fill="#E46790"/>
<path d="M145.928 305.34C148.462 306.699 150.849 307.507 153.126 307.838H153.163C153.273 307.838 153.383 307.801 153.42 307.691C158.782 299.134 167.302 284.885 167.228 283.196C167.118 280.699 161.426 278.385 160.398 278.018C160.324 277.944 160.251 277.908 160.177 277.908C160.067 277.908 159.957 277.981 159.883 278.091C157.79 282.572 152.612 293.552 149.674 298.84C148.756 300.493 147.471 302.513 145.818 304.9C145.781 304.973 145.745 305.083 145.781 305.157C145.781 305.23 145.818 305.304 145.928 305.34ZM150.225 299.134C153.016 294.103 157.68 284.261 160.324 278.642C162.234 279.413 166.53 281.47 166.604 283.196C166.641 284.334 160.434 295.315 153.016 307.177C150.996 306.883 148.829 306.112 146.552 304.936C148.095 302.66 149.344 300.713 150.225 299.134Z" fill="#E46790"/>
<path d="M130.798 284.665C127.309 288.631 123.747 290.32 123.747 290.32C123.747 290.32 129.66 308.646 135.132 319.406C136.637 317.57 141.852 311.106 146.039 305.083C138.988 301.301 132.965 294.507 131.606 292.34C129.623 289.108 130.835 284.665 130.798 284.665Z" fill="#244698"/>
<path d="M130.982 284.371C130.835 284.298 130.688 284.334 130.578 284.444C127.199 288.337 123.674 289.99 123.637 289.99C123.49 290.063 123.416 290.21 123.453 290.357C123.527 290.541 129.439 308.829 134.874 319.479C134.911 319.589 135.021 319.626 135.131 319.663H135.168C135.278 319.663 135.352 319.626 135.425 319.553C136.931 317.716 142.146 311.253 146.332 305.23C146.369 305.157 146.406 305.047 146.369 304.973C146.332 304.9 146.296 304.826 146.222 304.753C138.987 300.897 133.148 294.066 131.936 292.12C129.99 289.035 131.128 284.738 131.128 284.701C131.165 284.591 131.092 284.444 130.982 284.371ZM131.386 292.487C132.598 294.433 138.437 301.227 145.598 305.157C141.705 310.739 137.004 316.615 135.242 318.781C130.284 308.829 124.922 292.671 124.188 290.43C124.996 290.026 127.603 288.557 130.321 285.693C130.064 287.272 129.917 290.173 131.386 292.487Z" fill="#244698"/>
<path d="M139.648 327.008C141.925 324.841 147.581 316.394 153.163 307.507C150.776 307.177 148.352 306.295 146.075 305.047C141.889 311.069 136.674 317.533 135.168 319.369C137.886 324.731 137.959 328.623 139.648 327.008Z" fill="#924260"/>
<path d="M138.767 327.669C138.841 327.669 138.877 327.705 138.951 327.705C139.245 327.705 139.538 327.558 139.869 327.228C141.889 325.282 146.957 317.973 153.42 307.654C153.494 307.581 153.493 307.434 153.457 307.36C153.42 307.25 153.31 307.213 153.2 307.177C151.033 306.883 148.683 306.075 146.222 304.753C146.075 304.679 145.892 304.716 145.818 304.863C141.632 310.886 136.417 317.312 134.948 319.149C134.874 319.259 134.838 319.369 134.911 319.479C135.903 321.462 136.527 323.188 137.041 324.584C137.702 326.493 138.069 327.522 138.767 327.669ZM146.149 305.487C148.389 306.662 150.556 307.434 152.612 307.764C146.296 317.827 141.375 324.914 139.428 326.787C139.281 326.934 139.061 327.118 138.914 327.081C138.547 327.008 138.106 325.796 137.629 324.437C137.151 323.078 136.527 321.352 135.572 319.442C137.188 317.423 142.109 311.29 146.149 305.487Z" fill="#924260"/>
<path d="M104.21 202.403L98.15 182.792C98.15 182.792 55.2196 185.84 46.4793 204.753C37.739 223.666 83.387 288.337 83.387 288.337C83.277 288.411 83.203 288.558 83.13 288.704C87.794 289.623 102.263 290.724 114.933 274.052C114.713 274.235 114.602 274.309 114.602 274.309C113.978 270.049 91.026 223.85 96.497 224.07C97.342 224.107 98.223 223.997 99.105 223.85C97.636 205.929 77.217 187.273 74.94 187.346C74.867 187.383 74.794 187.42 74.72 187.456C74.757 187.383 74.83 187.346 74.94 187.346C81.33 183.417 94.074 193.002 104.21 202.403Z" fill="#F9C09D"/>
<path d="M103.989 202.623C104.099 202.733 104.246 202.733 104.356 202.66C104.467 202.587 104.54 202.44 104.503 202.293L98.444 182.682C98.407 182.535 98.26 182.462 98.113 182.462C98.003 182.462 87.206 183.27 75.491 186.355C64.6211 189.219 50.7394 194.728 46.1857 204.606C42.5133 212.539 47.6179 229.101 61.3894 253.78C70.974 271.003 81.624 286.354 82.983 288.3C82.946 288.374 82.873 288.484 82.836 288.558C82.799 288.631 82.799 288.741 82.836 288.815C82.873 288.888 82.946 288.961 83.057 288.961C84.158 289.182 85.848 289.402 87.904 289.402C90.218 289.402 93.009 289.108 96.13 288.227C103.292 286.134 109.718 281.396 115.227 274.198C115.337 274.088 115.3 273.905 115.19 273.794C115.08 273.684 114.933 273.684 114.823 273.721C114.272 271.701 111.885 266.303 108.91 259.619C103.181 246.619 94.514 226.971 96.167 224.511C96.24 224.401 96.351 224.327 96.498 224.364C97.306 224.401 98.15 224.327 99.178 224.144C99.325 224.107 99.436 223.96 99.436 223.813C98.04 206.7 80.192 189.586 75.749 187.273C82.212 184.335 94.588 193.92 103.989 202.623ZM97.93 183.16L103.585 201.411C95.726 194.213 85.994 186.722 79.164 186.208C88.455 184.004 96.424 183.27 97.93 183.16ZM98.774 223.593C97.93 223.74 97.195 223.776 96.534 223.776C96.167 223.776 95.837 223.923 95.653 224.217C93.927 226.751 100.39 241.881 108.359 259.949C111.444 266.964 114.125 273.06 114.345 274.382C110.673 279.046 99.399 291.238 83.718 288.484C83.754 288.374 83.754 288.264 83.681 288.154C83.24 287.493 38.2165 223.409 46.81 204.863C50.9598 195.866 63.0787 190.504 74.5 187.309C74.463 187.456 74.537 187.566 74.647 187.64C74.757 187.713 74.941 187.713 75.051 187.64H75.087C77.621 187.934 97.159 206.296 98.774 223.593Z" fill="#F9C09D"/>
<path d="M119.009 276.622C117.687 273.868 116.733 272.179 116.476 272.509C115.888 273.28 115.337 273.794 114.97 274.088C102.3 290.761 87.831 289.659 83.167 288.741C82.8 289.586 83.093 291.349 83.791 293.589C89.336 294.323 106.046 294.727 119.009 276.622Z" fill="#C0C3D6"/>
<path d="M83.754 293.919C84.709 294.029 86.068 294.176 87.757 294.176C95.102 294.176 108.543 291.826 119.267 276.842C119.34 276.732 119.34 276.622 119.303 276.512C117.247 272.252 116.843 272.215 116.586 272.179C116.439 272.142 116.292 272.215 116.218 272.362C115.668 273.097 115.153 273.574 114.713 273.941C111.518 278.165 99.766 291.679 83.203 288.484C83.057 288.447 82.91 288.521 82.836 288.668C82.469 289.512 82.653 291.165 83.461 293.736C83.534 293.809 83.607 293.882 83.754 293.919ZM83.35 289.108C85.811 289.549 90.512 289.953 96.13 288.3C103.292 286.207 109.718 281.47 115.153 274.309C115.521 274.015 116.035 273.537 116.549 272.84C116.769 273.097 117.32 273.905 118.605 276.549C105.789 294.323 89.153 293.882 84.011 293.258C83.314 290.871 83.24 289.696 83.35 289.108Z" fill="#C0C3D6"/>
<path d="M129.292 301.888C128.558 299.134 124.224 288.19 120.772 280.442C112.179 296.857 91.723 299.024 85.517 298.326C88.786 306.442 94.111 316.541 94.111 316.541C112.289 329.652 130.504 306.369 129.292 301.888Z" fill="#C0C3D6"/>
<path d="M93.89 316.798C97.967 319.736 101.97 320.801 105.605 320.801C111.151 320.801 115.888 318.341 118.826 316.284C125.363 311.767 130.284 304.422 129.549 301.815C128.778 298.95 124.371 287.896 121.029 280.331C120.993 280.221 120.883 280.148 120.736 280.148C120.625 280.148 120.515 280.221 120.442 280.331C111.591 297.261 90.622 298.62 85.517 298.069C85.407 298.069 85.297 298.106 85.223 298.179C85.15 298.253 85.15 298.4 85.187 298.473C88.418 306.516 93.743 316.615 93.78 316.688C93.817 316.725 93.854 316.762 93.89 316.798ZM120.736 281.176C124.041 288.704 128.227 299.244 128.962 301.998C129.476 303.908 125.51 310.886 118.495 315.77C113.758 319.038 104.32 323.482 94.331 316.321C93.89 315.439 89.079 306.295 85.995 298.693C91.907 299.134 111.812 297.335 120.736 281.176Z" fill="#C0C3D6"/>
<path d="M74.757 187.493C74.83 187.456 74.904 187.42 74.977 187.383C74.867 187.383 74.794 187.383 74.757 187.493Z" fill="#9FA3B5"/>
<path d="M74.794 187.787C74.867 187.787 74.941 187.75 75.014 187.713C75.051 187.677 75.087 187.677 75.124 187.64C75.234 187.566 75.308 187.419 75.271 187.273C75.234 187.126 75.124 187.052 74.941 187.052C74.573 187.052 74.463 187.273 74.463 187.383C74.426 187.53 74.5 187.64 74.61 187.713C74.647 187.75 74.72 187.787 74.794 187.787ZM75.051 187.566C75.014 187.64 74.977 187.677 74.977 187.677V187.53L75.051 187.566Z" fill="#9FA3B5"/>
<path d="M109.461 219.406L104.209 202.403C94.074 193.002 81.33 183.417 74.977 187.346C77.254 187.273 97.673 205.928 99.141 223.85C104.099 222.932 109.461 219.406 109.461 219.406Z" fill="#E68262"/>
<path d="M74.977 187.677C77.364 187.677 97.379 206.369 98.811 223.886C98.811 223.96 98.848 224.07 98.921 224.107C98.995 224.144 99.031 224.18 99.105 224.18C99.142 224.18 99.142 224.18 99.178 224.18C104.173 223.225 109.424 219.847 109.645 219.7C109.755 219.626 109.828 219.48 109.792 219.333L104.54 202.329C104.54 202.293 104.503 202.219 104.467 202.183C94.625 193.038 81.477 182.976 74.83 187.089C74.72 187.162 74.647 187.309 74.683 187.456C74.72 187.603 74.83 187.677 74.977 187.677ZM103.952 202.587L109.131 219.296C108.139 219.92 103.659 222.601 99.435 223.483C97.82 206.516 80.192 189.586 75.748 187.309C82.212 184.335 94.551 193.883 103.952 202.587Z" fill="#E68262"/>
<path d="M120.772 280.441C120.148 279.046 119.56 277.761 119.009 276.622C106.046 294.727 89.336 294.323 83.791 293.589C84.232 295.021 84.819 296.637 85.517 298.363C91.687 299.024 112.179 296.857 120.772 280.441Z" fill="#4C4566"/>
<path d="M85.48 298.657C86.031 298.73 86.766 298.767 87.647 298.767C95.065 298.767 112.987 296.012 121.066 280.588C121.103 280.515 121.103 280.405 121.066 280.331C120.405 278.862 119.817 277.577 119.303 276.512C119.266 276.402 119.156 276.328 119.046 276.328C118.936 276.328 118.826 276.365 118.752 276.475C105.752 294.654 88.749 293.956 83.828 293.295C83.718 293.295 83.607 293.332 83.534 293.405C83.46 293.478 83.46 293.589 83.46 293.699C83.864 295.058 84.452 296.673 85.186 298.473C85.26 298.583 85.37 298.657 85.48 298.657ZM118.936 277.246C119.376 278.165 119.854 279.23 120.405 280.441C111.628 297.041 91.136 298.546 85.737 298.069C85.113 296.527 84.636 295.168 84.232 293.993C89.74 294.58 106.156 294.69 118.936 277.246Z" fill="#4C4566"/>
<path d="M121.544 222.417C124.959 218.268 166.971 205.781 169.358 195.205C169.432 194.874 169.505 194.507 169.542 194.14C167.412 186.722 162.271 179.267 157.827 178.973C150.923 183.453 142.917 177.137 142.917 177.137C131.79 170.086 109.755 167.331 109.755 167.331C102.19 170.783 91.54 175.301 88.529 176.586C92.054 178.238 97.269 181.837 104.283 189.549C116.806 203.358 121.213 216.285 121.544 222.417Z" fill="#4461AB"/>
<path d="M104.026 189.733C117.027 204.055 120.956 217.019 121.213 222.454C121.213 222.601 121.323 222.711 121.433 222.748C121.47 222.748 121.507 222.748 121.544 222.748C121.654 222.748 121.727 222.711 121.801 222.638C122.939 221.279 128.962 218.745 135.903 215.844C149.491 210.152 168.073 202.366 169.652 195.315C169.726 194.985 169.799 194.581 169.836 194.213C169.836 194.177 169.836 194.14 169.836 194.103C167.779 186.942 162.638 179.046 157.827 178.716C157.754 178.716 157.68 178.716 157.643 178.753C150.996 183.049 143.174 176.99 143.064 176.916C132.01 169.902 110.012 167.074 109.792 167.074C109.719 167.074 109.682 167.074 109.608 167.111C102.043 170.563 91.43 175.08 88.382 176.366C88.272 176.402 88.198 176.512 88.198 176.659C88.198 176.77 88.272 176.916 88.382 176.953C92.899 178.973 98.187 183.306 104.026 189.733ZM109.792 167.625C111.334 167.846 132.157 170.673 142.697 177.357C142.77 177.431 150.886 183.71 157.9 179.267C162.234 179.671 167.228 187.236 169.211 194.14C169.175 194.507 169.101 194.838 169.028 195.132C167.522 201.852 149.087 209.564 135.646 215.22C129.072 217.974 123.71 220.214 121.801 221.72C120.883 210.152 110.563 195.976 104.504 189.292C98.885 183.086 93.744 178.826 89.3 176.549C92.972 175.007 102.704 170.857 109.792 167.625Z" fill="#4461AB"/>
<path d="M157.827 178.973C162.27 179.267 167.412 186.758 169.542 194.14C170.864 182.902 156.651 160.207 141.08 158.811C124.995 157.379 116.696 163.916 116.696 163.916C115.337 164.687 112.803 165.899 109.755 167.295C109.755 167.295 131.789 170.049 142.917 177.1C142.917 177.1 150.886 183.417 157.827 178.973Z" fill="#244698"/>
<path d="M142.696 177.357C142.77 177.431 150.886 183.71 157.9 179.267C162.233 179.671 167.265 187.273 169.211 194.213C169.248 194.36 169.358 194.434 169.505 194.434C169.505 194.434 169.505 194.434 169.542 194.434C169.688 194.434 169.799 194.287 169.835 194.14C170.57 188.007 166.677 178.349 160.397 170.637C154.485 163.365 147.617 159.032 141.117 158.481C125.106 157.049 116.585 163.586 116.549 163.622C115.337 164.32 113.023 165.459 109.645 167.001C109.498 167.074 109.424 167.185 109.461 167.331C109.498 167.478 109.608 167.589 109.718 167.589C109.939 167.662 131.789 170.453 142.696 177.357ZM116.879 164.173C116.953 164.1 125.326 157.746 141.044 159.142C147.397 159.693 154.081 163.953 159.883 171.077C165.502 177.981 169.174 186.391 169.285 192.377C166.971 185.73 162.234 178.973 157.827 178.679C157.827 178.679 157.827 178.679 157.79 178.679C157.716 178.679 157.68 178.679 157.606 178.716C150.959 183.013 143.137 176.953 143.027 176.88C133.368 170.747 115.374 167.846 110.82 167.185C113.721 165.826 115.741 164.834 116.879 164.173Z" fill="#244698"/>
<path d="M104.944 234.389C104.944 234.389 112.069 233.545 115.668 229.248C119.303 224.915 117.761 227.008 121.36 222.675C121.433 222.601 121.47 222.491 121.543 222.417C121.25 216.248 120.221 204.57 107.662 190.725C100.648 183.013 89.116 176.292 89.116 176.292C89.116 176.292 87.574 175.851 83.644 177.21C77.879 179.193 69.91 185.804 70.975 186.758C72.884 188.484 92.311 190.321 102.263 210.445C112.179 230.607 104.944 234.389 104.944 234.389Z" fill="#4C4566"/>
<path d="M104.797 234.132C104.65 234.206 104.614 234.353 104.65 234.5C104.687 234.647 104.797 234.72 104.944 234.72H104.981C105.275 234.683 112.252 233.802 115.925 229.468C117.687 227.375 118.238 226.788 118.716 226.273C119.267 225.686 119.744 225.172 121.617 222.895C121.654 222.858 121.69 222.821 121.727 222.748C121.764 222.711 121.801 222.675 121.801 222.638C121.837 222.564 121.874 222.491 121.874 222.417C121.617 217.203 121.029 204.974 107.919 190.541C100.978 182.866 89.41 176.108 89.3 176.035C89.263 176.035 89.263 175.998 89.226 175.998C89.153 175.962 87.5369 175.521 83.5339 176.916C78.3929 178.679 70.975 184.371 70.571 186.354C70.497 186.722 70.6439 186.905 70.7539 187.015C71.1949 187.419 72.297 187.787 73.986 188.301C80.523 190.394 94.074 194.691 101.97 210.592C109.682 226.237 107.184 232.847 104.797 234.132ZM102.52 210.335C94.515 194.177 80.266 189.66 74.17 187.713C72.664 187.236 71.4889 186.869 71.1579 186.575C70.9009 185.693 77.805 179.561 83.718 177.541C86.068 176.733 87.537 176.586 88.308 176.586C88.676 176.586 88.896 176.623 88.969 176.623C89.741 177.063 100.721 183.6 107.405 190.982C120.258 205.157 120.956 217.129 121.213 222.344L121.176 222.381C121.14 222.417 121.14 222.454 121.103 222.491C119.23 224.731 118.789 225.245 118.238 225.833C117.761 226.384 117.173 226.971 115.411 229.065C112.766 232.223 108.139 233.471 106.009 233.912C107.699 232.002 110.306 226.09 102.52 210.335Z" fill="#4C4566"/>
<path d="M97.746 135.822C97.746 135.822 117.687 152.495 149.013 168.764C180.338 185.033 164.547 201.118 169.615 198.878C174.683 196.601 178.686 164.173 179.788 144.893C180.889 125.65 178.172 99.209 173.287 84.7026C168.403 70.1966 152.538 53.5239 136.931 53.1199C121.323 52.716 113.611 64.9083 112.399 67.222C111.187 69.5356 113.501 71.5554 113.758 74.6769C114.015 77.7984 109.975 97.042 108.323 101.669C106.707 106.26 97.746 135.822 97.746 135.822Z" fill="#2893D0"/>
<path d="M97.452 135.749C97.416 135.859 97.452 136.006 97.562 136.079C97.746 136.263 117.871 152.972 148.866 169.058C171.561 180.846 169.284 192.598 168.403 197.041C168.146 198.29 168.036 198.951 168.44 199.281C168.55 199.392 168.697 199.428 168.88 199.428C169.138 199.428 169.468 199.318 169.762 199.171C175.381 196.674 179.237 160.868 180.118 144.93C181.22 125.283 178.355 98.768 173.581 84.5923C171.084 77.174 165.906 69.4253 159.332 63.3658C152.134 56.7188 144.202 52.9729 136.931 52.7893C136.674 52.7893 136.416 52.7893 136.159 52.7893C119.854 52.7893 112.399 66.4874 112.105 67.075C111.297 68.5806 111.885 69.9762 112.472 71.4451C112.876 72.4367 113.317 73.5016 113.427 74.7135C113.684 77.7249 109.718 96.785 108.029 101.559C106.413 106.113 97.526 135.455 97.452 135.749ZM114.051 74.6401C113.941 73.318 113.464 72.1796 113.06 71.188C112.472 69.7191 111.995 68.5806 112.656 67.332C112.95 66.7444 120.441 52.9362 136.931 53.4136C152.098 53.8176 168.109 70.2699 172.994 84.7759C177.731 98.878 180.595 125.283 179.494 144.856C178.319 166.046 174.169 196.49 169.505 198.547C169.027 198.767 168.88 198.731 168.88 198.731C168.77 198.584 168.917 197.812 169.064 197.115C169.945 192.561 172.333 180.479 149.196 168.47C119.744 153.156 100.133 137.291 98.15 135.675C98.958 133.068 107.111 106.076 108.653 101.706C110.159 97.446 114.345 77.9453 114.051 74.6401Z" fill="#2893D0"/>
<path d="M174.315 153.523C170.57 129.175 149.049 171.849 149.049 171.849L161.389 177.137C161.389 177.137 178.098 177.871 174.315 153.523Z" fill="#1F6F93"/>
<path d="M148.939 172.142L161.278 177.431C161.315 177.431 161.352 177.467 161.389 177.467C161.425 177.467 161.462 177.467 161.609 177.467C162.674 177.467 167.522 177.247 171.157 173.171C174.866 169.058 176.042 162.411 174.646 153.487C173.912 148.712 172.406 146.105 170.166 145.775C162.527 144.599 149.343 170.637 148.756 171.738C148.719 171.812 148.719 171.922 148.756 171.996C148.792 172.032 148.829 172.106 148.939 172.142ZM170.056 146.362C172.002 146.656 173.324 149.08 173.985 153.56C175.344 162.3 174.205 168.727 170.643 172.693C167.007 176.733 162.013 176.806 161.425 176.77L149.453 171.665C150.996 168.764 163.335 145.334 170.056 146.362Z" fill="#1F6F93"/>
<path d="M138.877 89.036C138.877 89.036 130.027 118.636 129.586 124.218C129.182 129.8 113.868 133.362 113.868 133.362L142.88 143.277C142.917 143.277 145.708 85.2534 138.877 89.036Z" fill="#1F6F93"/>
<path d="M142.806 143.571C142.843 143.571 142.88 143.571 142.917 143.571C142.99 143.571 143.027 143.534 143.1 143.534C143.174 143.461 143.247 143.388 143.247 143.277C143.357 141.184 145.671 92.121 140.273 88.742C139.795 88.448 139.281 88.448 138.767 88.742C138.693 88.779 138.657 88.852 138.62 88.926C138.253 90.138 129.733 118.599 129.329 124.181C128.925 129.469 114.015 133.031 113.831 133.031C113.684 133.068 113.611 133.178 113.574 133.325C113.574 133.472 113.648 133.582 113.795 133.656L142.806 143.571ZM129.916 124.254C130.32 118.966 138.51 91.423 139.134 89.256C139.391 89.146 139.648 89.146 139.869 89.293C144.055 91.9 143.247 128.404 142.586 142.837L114.97 133.435C118.532 132.517 129.549 129.212 129.916 124.254Z" fill="#1F6F93"/>
<path d="M128.668 115.22C128.925 115.22 129.145 115.073 129.256 114.853C129.292 114.78 129.99 113.2 130.247 110.593C130.284 110.262 130.027 109.932 129.659 109.895C129.329 109.858 128.998 110.116 128.962 110.483C128.741 112.87 128.08 114.339 128.08 114.339C127.933 114.669 128.08 115.037 128.411 115.183C128.521 115.183 128.594 115.22 128.668 115.22Z" fill="#1F6F93"/>
<path d="M127.456 111.144C127.713 111.144 127.97 110.96 128.044 110.703C128.778 108.316 128.888 106.774 128.888 106.7C128.925 106.37 128.631 106.039 128.301 106.039C127.97 106.002 127.64 106.296 127.64 106.627C127.64 106.627 127.529 108.132 126.868 110.336C126.758 110.666 126.942 111.034 127.272 111.144C127.309 111.144 127.383 111.144 127.456 111.144Z" fill="#1F6F93"/>
<path d="M95.212 127.89C92.972 126.348 86.656 124.218 79.568 124.218C72.48 124.218 69.102 133.876 69.102 133.876L97.563 139.972L106.303 128.845C102.888 129.616 97.453 129.432 95.212 127.89Z" fill="#F9C09D"/>
<path d="M68.991 134.206L97.452 140.303C97.489 140.303 97.489 140.303 97.526 140.303C97.636 140.303 97.71 140.266 97.783 140.192L106.523 129.065C106.597 128.955 106.597 128.808 106.56 128.698C106.487 128.588 106.34 128.551 106.23 128.551C102.888 129.322 97.526 129.065 95.433 127.633C93.156 126.09 86.766 123.924 79.605 123.924C72.333 123.924 68.955 133.399 68.844 133.802C68.808 133.876 68.808 133.986 68.881 134.06C68.844 134.133 68.918 134.17 68.991 134.206ZM79.531 124.548C86.545 124.548 92.825 126.641 95.029 128.147C97.159 129.616 102.006 129.91 105.495 129.322L97.416 139.642L69.506 133.656C70.167 131.966 73.472 124.548 79.531 124.548Z" fill="#F9C09D"/>
<path d="M81.037 132.223C82.983 129.616 75.492 125.062 75.492 125.062C72.627 124.805 68.514 131.085 68.514 131.085C68.514 131.085 79.127 134.794 81.037 132.223Z" fill="#E68262"/>
<path d="M68.404 131.379C69.212 131.672 74.463 133.472 78.099 133.472C79.531 133.472 80.706 133.178 81.294 132.444C81.625 132.003 81.735 131.452 81.625 130.864C81.11 128.184 75.896 124.952 75.675 124.805C75.638 124.768 75.602 124.768 75.528 124.768C72.48 124.511 68.404 130.681 68.257 130.938C68.22 131.011 68.184 131.122 68.22 131.195C68.257 131.268 68.33 131.342 68.404 131.379ZM75.345 125.356C75.381 125.356 75.381 125.356 75.418 125.356C76.006 125.723 80.596 128.661 81.037 130.938C81.11 131.342 81.037 131.709 80.817 132.04C79.421 133.913 72.186 131.966 69.028 130.901C70.277 129.065 73.288 125.356 75.345 125.356Z" fill="#E68262"/>
<path d="M152.098 74.6766C152.281 75.1908 152.759 75.5213 153.273 75.5213C153.42 75.5213 153.567 75.4846 153.713 75.4478C154.374 75.1908 154.705 74.493 154.485 73.832C151.914 66.8544 136.931 57.2694 136.27 56.8655C135.682 56.4982 134.911 56.6819 134.507 57.2695C134.14 57.857 134.323 58.6282 134.911 59.0322C139.061 61.6029 150.225 69.5353 152.098 74.6766Z" fill="#504566"/>
<path d="M139.832 54.4785C141.228 52.8259 137.629 51.2101 131.092 53.8175C124.555 56.4249 122.021 60.7216 122.021 60.7216C122.021 60.7216 116.329 72.8772 120.809 74.1626C126.869 75.8886 138.363 56.1678 139.832 54.4785Z" fill="#504566"/>
<path d="M120.699 74.4197C120.993 74.4932 121.286 74.5299 121.58 74.5299C126.832 74.5299 134.617 62.7782 138.437 56.9758C139.208 55.8006 139.795 54.956 140.016 54.6622C140.456 54.148 140.53 53.5605 140.163 53.1198C139.281 51.8712 135.719 51.5774 130.908 53.487C124.371 56.0577 121.764 60.3544 121.654 60.5013C121.654 60.5013 121.654 60.5013 121.654 60.538C121.47 60.9053 117.467 69.5354 119.046 73.0242C119.45 73.7587 120.001 74.2361 120.699 74.4197ZM122.315 60.8318C122.462 60.5748 125.069 56.5351 131.239 54.0746C135.976 52.2017 139.134 52.6057 139.722 53.487C139.795 53.5605 139.979 53.8175 139.575 54.2582C139.318 54.5887 138.767 55.3967 137.922 56.6453C134.58 61.7132 125.657 75.2277 120.846 73.8321C120.295 73.6852 119.928 73.318 119.671 72.8039C118.275 69.6089 122.094 61.2358 122.315 60.8318Z" fill="#504566"/>
<path d="M24.5183 121.28C23.0861 116.873 -3.13493 105.745 0.72107 108.573C4.57717 111.438 3.58557 130.35 3.58557 130.35C3.58557 130.35 25.9506 125.65 24.5183 121.28Z" fill="#924260"/>
<path d="M3.36548 130.571C3.43888 130.608 3.51237 130.644 3.58587 130.644C3.62257 130.644 3.62258 130.644 3.65928 130.644C4.43048 130.497 22.2783 126.715 24.6287 122.638C24.9225 122.124 24.9959 121.647 24.8123 121.169C23.4902 117.093 2.44737 107.802 0.464272 107.802C0.133772 107.802 0.0602755 107.985 0.0235755 108.059C-0.0866245 108.353 0.207174 108.573 0.537774 108.83C4.21017 111.548 3.25527 130.13 3.25527 130.314C3.25527 130.424 3.29198 130.497 3.36548 130.571ZM1.23547 108.61C3.03497 109.161 7.55197 111.034 12.4363 113.457C19.3037 116.873 23.7106 119.847 24.2248 121.39C24.3349 121.684 24.2614 122.014 24.0778 122.345C22.0213 125.87 6.59718 129.359 3.91628 129.983C4.02648 127.155 4.57737 111.988 1.23547 108.61Z" fill="#924260"/>
<path d="M55.7341 126.09C60.9489 127.816 71.782 129.212 76.667 129.212C80.559 126.201 84.599 123.74 87.647 123.446C87.647 123.446 28.7785 107.985 21.8744 109.014C21.8744 109.014 6.81768 117.974 3.58588 130.387C3.58588 130.387 34.2872 132.223 63.997 140.964C63.997 140.964 66.0167 138.76 68.991 135.969L44.6433 125.833C44.6066 125.76 49.6379 124.107 55.7341 126.09Z" fill="#4461AB"/>
<path d="M55.6605 126.384C60.8018 128.074 71.525 129.506 76.703 129.506C76.777 129.506 76.85 129.469 76.887 129.432C81.441 125.907 85.076 123.96 87.684 123.703C87.831 123.703 87.941 123.556 87.978 123.41C87.978 123.263 87.904 123.116 87.757 123.079C85.334 122.455 28.7418 107.618 21.8377 108.647C21.801 108.647 21.7642 108.683 21.7275 108.683C21.5806 108.757 6.52378 117.828 3.29208 130.24C3.25538 130.314 3.29198 130.424 3.32868 130.497C3.40218 130.571 3.47568 130.607 3.54908 130.644C3.84288 130.681 34.5809 132.591 63.8867 141.221C63.9234 141.221 63.9601 141.221 63.9601 141.221C64.0336 141.221 64.1438 141.184 64.1805 141.111C64.2173 141.074 66.237 138.907 69.175 136.116C69.248 136.043 69.285 135.932 69.285 135.822C69.248 135.712 69.212 135.639 69.102 135.602L45.5981 125.833C47.2874 125.466 51.2169 124.952 55.6605 126.384ZM44.4964 126.054L68.404 136.006C66.0535 138.246 64.3641 140.046 63.8867 140.56C36.3437 132.48 7.62548 130.314 3.98978 130.057C7.25818 118.489 21.0297 109.895 21.9846 109.308C28.4113 108.5 77.401 121.096 86.215 123.41C83.681 124.107 80.449 125.944 76.557 128.918C71.378 128.881 60.8386 127.486 55.8074 125.833C49.6745 123.814 44.68 125.429 44.4964 125.503C44.3862 125.54 44.276 125.65 44.276 125.797C44.276 125.907 44.3862 126.017 44.4964 126.054Z" fill="#4461AB"/>
<path d="M55.7343 126.09C49.6381 124.107 44.6069 125.76 44.6069 125.76L68.955 135.896C71.158 133.803 73.876 131.379 76.667 129.212C71.783 129.212 60.9859 127.816 55.7343 126.09Z" fill="#244698"/>
<path d="M68.845 136.19C68.881 136.19 68.918 136.226 68.955 136.226C69.028 136.226 69.102 136.19 69.175 136.153C71.893 133.582 74.5 131.305 76.887 129.469C76.997 129.396 77.034 129.249 76.997 129.102C76.961 128.992 76.85 128.881 76.704 128.881C71.562 128.881 60.9122 127.449 55.8443 125.797C49.7114 123.777 44.717 125.393 44.5334 125.466C44.4232 125.503 44.313 125.613 44.313 125.76C44.313 125.907 44.3864 126.017 44.4966 126.054L68.845 136.19ZM55.6607 126.384C60.5082 127.963 70.35 129.359 75.822 129.506C73.656 131.232 71.342 133.252 68.918 135.529L45.6351 125.833C47.2877 125.466 51.2171 124.952 55.6607 126.384Z" fill="#244698"/>
<path d="M101.97 129.946C88.969 134.427 78.393 131.783 78.393 131.783C78.393 131.783 59.333 129.359 55.6238 127.706C51.878 126.09 43.615 123.079 43.8354 127.78C44.0557 132.444 52.3921 136.263 52.3921 136.263C52.3921 136.263 52.2819 136.52 52.1717 136.924C57.3865 138.944 64.1805 139.678 67.1185 139.935C63.8867 139.715 56.0645 139.091 52.0249 138.356C52.0983 140.045 53.0531 142.469 57.3131 144.269C57.3131 144.269 57.2397 144.489 57.203 144.856C62.528 146.362 70.13 147.133 70.13 147.133C70.13 147.133 62.3443 146.95 57.203 146.068C57.3499 147.941 58.4883 150.732 63.6297 151.356C63.6297 151.356 63.5562 151.614 63.4827 151.981C67.8896 152.789 73.104 153.34 73.104 153.34C73.104 153.34 67.5958 153.45 63.4093 153.156C63.4827 154.845 64.4743 157.159 69.065 157.673C76.373 158.481 86.031 160.317 94.955 158.958C103.916 157.6 162.748 182.976 170.35 167.919C175.528 157.673 175.528 141.661 175.014 132.444C160.875 135.565 142.696 128.514 138.216 126.641C138.179 128 138.179 129.836 138.29 131.856C138.216 131.746 114.97 125.466 101.97 129.946Z" fill="#F9C09D"/>
<path d="M101.859 129.616C89.079 134.023 78.54 131.452 78.393 131.415C78.209 131.379 59.3329 128.955 55.6972 127.376C53.1265 126.237 46.8834 123.814 44.4596 125.466C43.7619 125.943 43.4314 126.715 43.4681 127.743C43.6517 132.113 50.4456 135.639 51.9146 136.373C51.8779 136.483 51.8411 136.63 51.8044 136.777C51.7677 136.924 51.8411 137.108 51.988 137.144C53.5672 137.769 55.2933 138.246 57.0193 138.65C55.1464 138.43 53.3469 138.209 52.0248 137.952C51.9146 137.952 51.8412 137.952 51.7678 138.026C51.6943 138.099 51.6576 138.173 51.6576 138.283C51.731 140.046 52.7226 142.506 56.9091 144.379C56.9091 144.489 56.8724 144.599 56.8724 144.746C56.8724 144.893 56.9458 145.04 57.0927 145.077C58.8188 145.554 60.8019 145.995 62.7115 146.325C60.8386 146.178 58.8922 145.958 57.2396 145.664C57.1294 145.664 57.056 145.664 56.9825 145.738C56.9091 145.811 56.8724 145.885 56.8724 145.995C57.0192 147.758 58.0475 150.769 63.2256 151.503C63.1889 151.577 63.1889 151.687 63.1522 151.797C63.1155 151.981 63.2256 152.128 63.4092 152.164C64.9149 152.458 66.494 152.679 67.963 152.899C66.494 152.862 64.8782 152.825 63.446 152.715C63.3358 152.715 63.2623 152.752 63.1889 152.789C63.1154 152.862 63.0788 152.936 63.0788 153.046C63.1522 154.625 64.0335 157.306 68.991 157.857C70.35 158.004 71.819 158.187 73.325 158.408C80.045 159.289 87.647 160.28 94.955 159.142C97.783 158.701 106.119 161.125 115.778 163.953C129.476 167.919 146.516 172.877 158.12 172.877C164.217 172.877 168.77 171.518 170.607 167.919C175.858 157.526 175.821 141.147 175.307 132.297C175.307 132.187 175.271 132.113 175.197 132.076C175.124 132.003 175.014 132.003 174.94 132.003C161.022 135.088 143.394 128.331 138.326 126.201C138.216 126.164 138.106 126.164 138.032 126.237C137.959 126.311 137.886 126.384 137.886 126.494C137.849 128.147 137.886 129.763 137.959 131.305C134.691 130.534 113.831 125.503 101.859 129.616ZM138.143 132.076C138.253 132.113 138.363 132.076 138.436 132.003C138.51 131.929 138.547 131.856 138.547 131.746C138.473 130.24 138.436 128.661 138.473 127.008C144.055 129.322 161.022 135.602 174.683 132.737C175.16 141.588 175.124 157.526 170.019 167.662C164.988 177.614 136.637 169.388 115.961 163.365C106.67 160.684 99.178 158.481 95.726 158.481C95.396 158.481 95.139 158.518 94.882 158.554C87.647 159.656 80.082 158.665 73.435 157.82C71.929 157.636 70.46 157.416 69.065 157.269C65.0985 156.828 63.9601 154.992 63.7397 153.413C67.8528 153.707 73.031 153.56 73.104 153.56C73.288 153.56 73.398 153.413 73.398 153.266C73.398 153.119 73.288 152.972 73.104 152.936C73.068 152.936 68.073 152.421 63.8132 151.65C63.85 151.503 63.8867 151.393 63.8867 151.393C63.9234 151.32 63.8866 151.21 63.8499 151.136C63.8132 151.063 63.7031 150.989 63.6296 150.989C59.186 150.438 57.8272 148.272 57.5334 146.399C62.6013 147.207 70.02 147.39 70.093 147.39C70.277 147.39 70.387 147.243 70.424 147.097C70.424 146.913 70.313 146.766 70.13 146.766C70.056 146.766 62.7849 145.995 57.5334 144.599C57.5701 144.452 57.5702 144.342 57.5702 144.342C57.6069 144.195 57.5334 144.048 57.3865 143.975C53.604 142.359 52.5022 140.303 52.3186 138.723C56.4684 139.421 63.9233 140.009 67.0449 140.229C67.963 140.303 68.514 140.339 68.514 140.339C68.697 140.339 68.808 140.192 68.844 140.046C68.844 139.862 68.734 139.715 68.551 139.715C68.551 139.715 67.9997 139.678 67.0816 139.605C64.4008 139.384 57.6803 138.65 52.5022 136.704C52.5757 136.483 52.6124 136.373 52.6124 136.373C52.6491 136.3 52.6491 136.226 52.6124 136.116C52.5757 136.043 52.539 135.969 52.4288 135.932C52.3554 135.896 44.2761 132.15 44.0557 127.743C44.019 126.935 44.2393 126.384 44.7534 126.017C46.9936 124.511 53.457 127.119 55.4034 127.963C59.1125 129.579 77.475 131.966 78.246 132.04C78.356 132.076 89.079 134.647 102.006 130.203C114.823 125.833 137.922 132.003 138.143 132.076Z" fill="#F9C09D"/>
<path d="M52.0985 136.887C52.025 137.254 51.9149 137.732 51.9516 138.319C55.9913 139.054 63.7767 139.678 67.0452 139.899C64.1072 139.641 57.3133 138.907 52.0985 136.887Z" fill="#E68262"/>
<path d="M67.045 140.192C67.2286 140.192 67.3756 140.082 67.3756 139.899C67.3756 139.715 67.2654 139.568 67.0818 139.568C64.3642 139.348 57.4601 138.613 52.2085 136.557C52.1351 136.52 52.0249 136.52 51.9515 136.557C51.878 136.593 51.8045 136.667 51.8045 136.777C51.7311 137.108 51.621 137.658 51.6577 138.319C51.6577 138.466 51.7678 138.577 51.9147 138.613C55.9544 139.348 63.85 139.972 67.045 140.192ZM52.3554 137.291C53.8244 137.842 55.4402 138.283 57.0561 138.687C55.2933 138.503 53.6041 138.283 52.3187 138.062C52.282 137.769 52.3187 137.512 52.3554 137.291Z" fill="#E68262"/>
<path d="M68.514 140.303C68.697 140.303 68.844 140.156 68.844 140.009C68.844 139.825 68.734 139.678 68.55 139.678C68.55 139.678 67.9996 139.642 67.0815 139.568C66.8978 139.568 66.751 139.678 66.751 139.862C66.751 140.046 66.8611 140.192 67.0447 140.192C67.9628 140.303 68.514 140.303 68.514 140.303Z" fill="#E68262"/>
<path d="M57.1662 144.82C57.1295 145.113 57.1295 145.554 57.1662 146.031C62.2709 146.913 70.093 147.096 70.093 147.096C70.093 147.096 62.4912 146.325 57.1662 144.82Z" fill="#E68262"/>
<path d="M57.0927 146.325C62.1606 147.207 69.983 147.39 70.056 147.39C70.24 147.39 70.35 147.243 70.387 147.097C70.387 146.913 70.277 146.766 70.093 146.766C70.02 146.766 62.4911 145.995 57.2396 144.526C57.1661 144.489 57.056 144.526 56.9825 144.563C56.9091 144.599 56.8724 144.709 56.8356 144.783C56.7989 145.15 56.7989 145.628 56.8356 146.032C56.8724 146.178 56.9458 146.289 57.0927 146.325ZM57.4599 145.224C59.1125 145.664 60.9487 146.032 62.7115 146.362C60.912 146.215 59.0758 145.995 57.4599 145.738C57.4599 145.554 57.4599 145.37 57.4599 145.224Z" fill="#E68262"/>
<path d="M73.068 153.266C73.068 153.266 67.816 152.715 63.4458 151.907C63.4091 152.201 63.3356 152.605 63.3723 153.083C67.5588 153.376 73.068 153.266 73.068 153.266Z" fill="#E68262"/>
<path d="M70.387 153.597C71.966 153.597 73.068 153.56 73.068 153.56C73.251 153.56 73.361 153.413 73.361 153.266C73.361 153.119 73.251 152.972 73.068 152.936C73.031 152.936 67.7794 152.385 63.4459 151.577C63.3725 151.577 63.2623 151.577 63.1888 151.614C63.1154 151.65 63.0787 151.724 63.0419 151.834C62.9685 152.238 62.9318 152.679 62.9685 153.046C62.9685 153.193 63.1154 153.34 63.2623 153.34C65.6494 153.56 68.404 153.597 70.387 153.597ZM63.703 152.275C65.0985 152.532 66.5675 152.752 67.9263 152.936C66.5307 152.899 65.0618 152.862 63.703 152.752C63.6663 152.605 63.6663 152.458 63.703 152.275Z" fill="#E68262"/>
<path d="M174.353 125.246L138.216 124.218C138.216 124.218 138.179 125.099 138.143 126.531C142.623 128.441 160.801 135.492 174.94 132.334C174.72 128.074 174.353 125.246 174.353 125.246Z" fill="#E68262"/>
<path d="M167.081 133.472C169.799 133.472 172.479 133.215 175.013 132.664C175.16 132.627 175.27 132.48 175.27 132.333C175.013 128.074 174.683 125.209 174.683 125.209C174.646 125.062 174.536 124.952 174.389 124.915L138.253 123.887C138.069 123.887 137.959 124.034 137.922 124.181C137.922 124.181 137.885 125.099 137.849 126.494C137.849 126.641 137.922 126.751 138.032 126.788C142.219 128.624 154.889 133.472 167.081 133.472ZM138.51 124.548L174.059 125.54C174.132 126.311 174.426 128.735 174.609 132.113C160.911 135.014 143.725 128.551 138.436 126.347C138.473 125.54 138.51 124.915 138.51 124.548Z" fill="#E68262"/>
<path d="M153.603 70.4533C147.617 71.4081 142.77 76.1456 139.244 87.8238C136.93 95.426 135.204 106.443 134.029 113.824C138.032 115.734 157.496 124.217 176.592 116.983C175.27 100.53 170.533 67.699 153.603 70.4533Z" fill="#FCD375"/>
<path d="M160.324 120.178C165.575 120.178 171.158 119.407 176.703 117.313C176.85 117.277 176.923 117.13 176.923 116.983C175.858 103.725 172.627 80.2955 162.785 72.5834C160.067 70.4534 156.945 69.6455 153.604 70.1964C146.92 71.2981 142.292 76.8801 138.987 87.7872C136.784 95.132 135.131 105.451 133.919 112.98L133.773 113.824C133.736 113.971 133.809 114.082 133.956 114.155C136.564 115.404 147.36 120.178 160.324 120.178ZM134.47 113.017C135.682 105.488 137.335 95.205 139.538 87.8973C142.77 77.2474 147.25 71.8122 153.677 70.7472C156.872 70.2331 159.773 71.0043 162.381 73.0241C171.965 80.5525 175.197 103.542 176.262 116.762C157.643 123.703 138.583 115.587 134.397 113.604L134.47 113.017Z" fill="#FCD375"/>
<path d="M177.07 126.09C177.07 126.09 176.997 122.418 176.593 116.983C157.533 124.217 138.033 115.734 134.03 113.824C133.406 117.754 132.928 120.655 132.598 121.463C131.643 123.777 156.872 133.178 177.07 126.09Z" fill="#504566"/>
<path d="M177.18 126.384C177.327 126.347 177.401 126.2 177.401 126.09C177.401 126.054 177.327 122.344 176.923 116.983C176.923 116.873 176.85 116.799 176.776 116.726C176.703 116.689 176.593 116.652 176.483 116.689C157.46 123.924 137.922 115.33 134.177 113.531C134.103 113.494 133.993 113.494 133.883 113.531C133.809 113.567 133.736 113.678 133.699 113.751C133.075 117.57 132.597 120.545 132.267 121.316C132.157 121.647 132.267 121.977 132.597 122.344C134.58 124.438 146.92 128.955 160.618 128.955C166.163 128.992 171.855 128.257 177.18 126.384ZM132.891 121.573C133.222 120.765 133.662 118.158 134.287 114.302C138.841 116.432 157.753 124.291 176.299 117.46C176.629 121.867 176.74 125.025 176.74 125.907C158.304 132.26 135.829 124.842 133.112 121.977C132.891 121.72 132.891 121.61 132.891 121.573Z" fill="#504566"/>
<path d="M167.926 92.414C167.962 92.414 167.999 92.414 168.036 92.414C168.366 92.378 168.623 92.047 168.55 91.68C168.55 91.57 168.109 88.962 167.191 86.3917C167.081 86.0612 166.714 85.8776 166.383 86.0245C166.053 86.1346 165.869 86.5019 166.016 86.8324C166.897 89.293 167.301 91.864 167.301 91.9C167.338 92.194 167.595 92.414 167.926 92.414Z" fill="#E8AE37"/>
<path d="M164.768 88.962C164.804 88.962 164.804 88.962 164.841 88.962C165.172 88.926 165.429 88.632 165.392 88.265C165.172 86.2447 163.96 83.6006 163.923 83.4904C163.776 83.1599 163.409 83.0498 163.078 83.1967C162.748 83.3436 162.638 83.7108 162.785 84.0413C162.785 84.078 163.96 86.612 164.143 88.411C164.18 88.742 164.437 88.962 164.768 88.962Z" fill="#E8AE37"/>
<path d="M88.896 365.054C95.616 362.63 109.829 352.347 117.504 349.593C125.142 346.839 145.341 332.186 145.671 328.844C145.745 327.962 144.827 325.502 143.394 322.38C140.016 326.567 123.123 338.502 118.495 340.559C113.611 342.725 98.15 353.045 86.913 358.59C78.026 362.96 69.542 361.124 66.3105 360.133C66.5309 361.675 66.5309 363.071 68.147 365.017C69.763 367 82.175 367.514 88.896 365.054Z" fill="#E46790"/>
<path d="M67.9263 365.274C68.844 366.376 72.847 367 77.364 367C81.404 367 85.884 366.486 89.043 365.347C92.311 364.172 97.232 361.198 102.447 358.076C107.992 354.734 113.684 351.319 117.651 349.887C125.069 347.206 145.671 332.516 146.002 328.88C146.075 327.999 145.341 325.832 143.725 322.27C143.688 322.16 143.578 322.087 143.468 322.087C143.357 322.087 143.247 322.123 143.174 322.197C139.722 326.457 122.865 338.282 118.385 340.302C116.218 341.256 111.922 343.864 106.927 346.875C100.721 350.621 93.009 355.248 86.766 358.37C77.989 362.703 69.616 360.867 66.4206 359.912C66.2737 359.876 66.1268 359.912 66.0534 360.059C66.0166 360.133 65.98 360.206 66.0167 360.316L66.0901 360.794C66.237 362.079 66.3839 363.475 67.9263 365.274ZM87.023 358.884C93.303 355.762 101.015 351.135 107.221 347.389C112.179 344.415 116.439 341.807 118.605 340.853C123.012 338.906 139.171 327.558 143.284 322.968C145.047 326.861 145.341 328.293 145.304 328.807C145.01 331.929 125.179 346.471 117.357 349.299C113.354 350.731 107.625 354.183 102.043 357.525C96.865 360.647 91.944 363.585 88.749 364.76C82.028 367.22 69.836 366.596 68.367 364.87C66.9715 363.217 66.8245 361.969 66.6776 360.647V360.61C70.277 361.638 78.503 363.144 87.023 358.884Z" fill="#E46790"/>
<path d="M86.913 358.627C98.15 353.082 113.611 342.762 118.495 340.595C123.086 338.539 140.016 326.603 143.394 322.417C139.465 313.787 131.753 299.868 130.688 298.473C129.255 296.563 128.08 298.473 128.08 298.473C121.213 315.66 102.631 315.035 102.631 315.035C102.594 314.999 102.557 314.999 102.484 314.962C102.337 322.197 94.074 336.372 94.074 336.372C87.427 333.948 83.204 334.426 81.147 335.05C81.037 335.307 80.927 335.491 80.853 335.674C79.531 338.539 72.517 345.039 67.5223 350.511C62.6013 355.946 66.2002 360.059 66.3104 360.169C69.505 361.161 78.025 362.997 86.913 358.627Z" fill="#4461AB"/>
<path d="M74.794 361.712C78.393 361.712 82.689 361.051 87.06 358.884C93.339 355.762 101.051 351.135 107.258 347.389C112.216 344.415 116.476 341.807 118.642 340.853C123.159 338.833 140.199 326.897 143.651 322.601C143.725 322.49 143.725 322.38 143.688 322.27C139.759 313.567 131.973 299.611 130.982 298.253C130.467 297.592 129.917 297.224 129.366 297.261C128.448 297.298 127.897 298.216 127.86 298.326C121.507 314.228 104.834 314.705 102.888 314.705C102.851 314.705 102.814 314.705 102.777 314.705L102.704 314.668C102.594 314.632 102.484 314.632 102.41 314.668C102.3 314.742 102.263 314.815 102.263 314.925C102.116 321.499 95.065 334.132 94 335.968C87.647 333.691 83.497 334.022 81.11 334.72C81.037 334.756 80.963 334.793 80.927 334.903L80.633 335.528C79.752 337.4 76.299 340.963 72.664 344.709C70.864 346.581 68.991 348.491 67.3756 350.291C62.3077 355.873 65.98 360.169 66.1269 360.353C66.1636 360.39 66.2004 360.426 66.2738 360.463C67.8897 360.977 70.975 361.712 74.794 361.712ZM67.7795 350.731C69.395 348.932 71.268 347.022 73.068 345.149C76.777 341.33 80.229 337.768 81.147 335.785L81.367 335.307C83.314 334.756 87.464 334.279 93.964 336.666C94.111 336.703 94.258 336.666 94.331 336.519C94.661 335.931 102.374 322.637 102.777 315.329C102.777 315.329 102.778 315.329 102.814 315.329C104.834 315.329 121.874 314.852 128.337 298.62C128.337 298.62 128.778 297.959 129.329 297.922C129.696 297.922 130.027 298.142 130.431 298.657C131.422 299.979 139.061 313.713 142.99 322.38C139.281 326.75 122.755 338.355 118.349 340.302C116.182 341.256 111.885 343.864 106.891 346.875C100.684 350.621 92.972 355.248 86.729 358.37C78.062 362.667 69.726 360.904 66.4575 359.912C66.0535 359.325 63.3359 355.616 67.7795 350.731Z" fill="#4461AB"/>
<path d="M94.074 336.372C94.074 336.372 102.374 322.16 102.484 314.962C90.6589 308.572 89.3 314.007 89.3 314.007C90.181 315.623 83.02 330.937 81.11 335.05C83.24 334.462 87.427 333.948 94.074 336.372Z" fill="#283A84"/>
<path d="M80.853 334.903C80.816 335.013 80.817 335.16 80.89 335.234C80.963 335.344 81.11 335.381 81.22 335.344C83.093 334.793 87.28 334.242 93.964 336.666C94 336.666 94.037 336.703 94.074 336.703C94.184 336.703 94.294 336.629 94.331 336.556C94.661 335.968 102.667 322.197 102.814 314.962C102.814 314.852 102.741 314.742 102.631 314.668C95.947 311.069 92.568 311.216 90.879 311.951C89.336 312.648 89.043 313.86 89.006 313.897C88.969 313.97 89.006 314.044 89.043 314.117C89.3 314.558 88.969 317.459 80.89 334.793L80.853 334.903ZM89.667 314.007C89.777 313.75 90.108 313.016 91.173 312.538C92.715 311.877 95.873 311.767 102.19 315.146C101.933 321.756 94.992 334.169 93.927 336.005C90.218 334.683 87.28 334.242 85.003 334.242C83.681 334.242 82.616 334.389 81.698 334.573C89.226 318.488 89.961 314.962 89.667 314.007Z" fill="#283A84"/>
<path d="M96.241 26.3846C92.568 27.8903 90.144 33.5825 84.452 34.6475C84.452 34.6475 89.483 45.4811 91.65 47.5376C93.817 49.5575 91.246 51.8711 89.079 53.3768C86.913 54.8824 93.156 55.2864 95.58 56.2412C98.003 57.1961 101.272 66.2669 108.323 63.6962C115.264 61.1623 115.888 56.0209 117.467 56.2412C118.128 54.9192 118.899 52.7157 118.495 50.6959C117.944 48.1252 120.368 53.7807 120.515 58.2978C121.69 59.6198 122.719 61.6029 122.719 64.1736C122.719 69.0212 122.976 70.8941 127.456 65.6059C131.936 60.3176 137.225 54.5152 135.058 54.405C132.634 54.2949 119.34 42.8002 121.36 42.029C123.38 41.2211 128.925 34.4639 121.617 29.7999C113.942 24.9157 110.783 34.6842 111.665 36.5939C111.518 42.7268 99.913 24.9156 96.241 26.3846Z" fill="#F9C09D"/>
<path d="M111.004 37.5488C110.159 37.916 107.331 34.9414 105.054 32.5543C101.639 28.9921 98.077 25.3197 96.13 26.0909C94.588 26.7152 93.266 28.074 91.87 29.4695C89.924 31.4526 87.684 33.6928 84.415 34.3171C84.305 34.3538 84.232 34.3905 84.195 34.5007C84.158 34.6109 84.158 34.6843 84.195 34.7945C84.415 35.2352 89.263 45.7382 91.466 47.7581C91.98 48.2355 92.238 48.7496 92.164 49.3372C92.091 50.4022 90.989 51.6875 88.896 53.1198C88.455 53.4136 88.271 53.7441 88.308 54.0746C88.455 54.8458 89.961 55.213 92.384 55.7272C93.523 55.9842 94.698 56.2046 95.433 56.4984C96.094 56.7554 96.901 57.747 97.82 58.9222C100.133 61.8234 103.255 65.8263 108.396 63.9534C112.876 62.3008 114.823 59.5465 115.998 57.8939C116.586 57.0492 116.99 56.4249 117.394 56.4984C117.54 56.4984 117.651 56.4616 117.724 56.3148C118.312 55.1396 118.899 53.5237 118.899 51.8344C119.413 53.4503 120.074 55.9475 120.148 58.2244C120.148 58.2979 120.185 58.3713 120.221 58.408C121.176 59.5097 122.351 61.346 122.351 64.0635C122.351 66.7811 122.425 68.5806 123.38 68.9478C123.49 68.9845 123.6 69.0213 123.71 69.0213C124.555 69.0213 125.693 68.0297 127.639 65.7161C128.227 65.0183 128.815 64.3206 129.402 63.6228C133.662 58.6651 136.233 55.5436 135.756 54.4418C135.682 54.2582 135.462 54.0379 135.021 54.0011C133.185 53.9277 123.93 46.2524 121.8 43.0574C121.36 42.3964 121.396 42.2127 121.433 42.2127C122.718 41.6986 125.216 39.1279 125.546 35.9697C125.73 34.2069 125.216 31.5995 121.764 29.4328C118.091 27.0824 115.557 28.1107 114.088 29.396C111.811 31.3424 110.783 35.1617 111.334 36.5572C111.297 37.1448 111.187 37.4753 111.004 37.5488ZM111.958 36.5572C111.958 36.5205 111.958 36.4471 111.922 36.4103C111.518 35.4922 112.215 31.93 114.492 29.9102C116.365 28.2943 118.752 28.3311 121.433 30.0204C123.967 31.6362 125.142 33.656 124.922 35.9697C124.665 38.724 122.388 41.2212 121.213 41.6986C120.919 41.8088 120.772 42.1026 120.809 42.4698C121.176 44.7834 132.597 54.5887 135.021 54.6989C135.094 54.6989 135.205 54.7356 135.205 54.7724C135.572 55.5803 131.753 60.0239 128.962 63.2923C128.374 63.9901 127.75 64.6878 127.199 65.3856C124.885 68.1399 123.967 68.5438 123.637 68.4337C123.012 68.2133 123.012 65.7528 123.012 64.137C123.012 61.2725 121.837 59.3261 120.809 58.1142C120.662 54.6622 119.156 49.9615 118.605 49.7044C118.495 49.6677 118.348 49.6677 118.238 49.7412C118.055 49.8881 118.055 50.1451 118.165 50.696C118.532 52.5322 117.908 54.4786 117.247 55.8741C116.622 55.9475 116.108 56.6086 115.484 57.5267C114.309 59.216 112.509 61.7866 108.212 63.3291C103.512 65.0551 100.5 61.2725 98.334 58.5182C97.306 57.2329 96.498 56.2046 95.69 55.8741C94.882 55.5436 93.707 55.3232 92.531 55.0661C91.209 54.7724 89.006 54.3317 88.932 53.9277C88.932 53.891 88.969 53.7808 89.263 53.5972C91.54 52.0181 92.678 50.6593 92.788 49.3372C92.862 48.566 92.531 47.8682 91.87 47.2439C89.997 45.4812 85.811 36.7041 84.93 34.8312C88.198 34.06 90.365 31.8565 92.311 29.8735C93.67 28.5147 94.9549 27.1926 96.3869 26.605C97.9299 25.9807 101.639 29.8 104.614 32.9216C107.955 36.4103 110.085 38.5036 111.261 38.0629C111.922 37.8426 111.958 36.8877 111.958 36.5572Z" fill="#F9C09D"/>
<path d="M117.54 56.2412C118.311 56.4248 119.45 57.1226 120.478 58.261C120.331 53.7807 117.944 48.0885 118.458 50.6592C118.899 52.7157 118.091 54.8824 117.43 56.2045C117.504 56.2412 117.504 56.2412 117.54 56.2412Z" fill="#E68262"/>
<path d="M117.21 56.3882C117.246 56.4617 117.357 56.5351 117.467 56.5351C118.091 56.682 119.229 57.3063 120.258 58.4815C120.331 58.5549 120.405 58.5916 120.478 58.5916C120.515 58.5916 120.552 58.5917 120.588 58.5549C120.698 58.5182 120.809 58.3713 120.772 58.2611C120.662 54.8091 119.119 49.9982 118.568 49.7412C118.458 49.7044 118.311 49.7044 118.201 49.7779C118.018 49.9248 118.018 50.1819 118.128 50.7327C118.532 52.6424 117.797 54.6989 117.136 56.0944C117.136 56.1679 117.173 56.278 117.21 56.3882ZM118.936 51.9079C119.413 53.3034 119.964 55.4334 120.148 57.4532C119.34 56.7187 118.532 56.2413 117.944 56.021C118.422 54.8825 118.936 53.4136 118.936 51.9079Z" fill="#E68262"/>
<path d="M98.15 45.481C99.289 44.5629 98.995 42.286 97.489 40.3764C95.984 38.4667 93.817 37.6588 92.679 38.5402C91.54 39.4216 91.834 41.7352 93.34 43.6448C94.845 45.5545 97.012 46.3991 98.15 45.481Z" fill="white"/>
<path d="M96.975 46.1787C97.489 46.1787 97.967 46.0318 98.334 45.7381C99.619 44.7098 99.362 42.2493 97.71 40.1927C96.057 38.0995 93.744 37.2915 92.458 38.3198C91.797 38.8339 91.54 39.7153 91.687 40.7803C91.834 41.8086 92.311 42.9103 93.083 43.8651C94.258 45.3341 95.727 46.1787 96.975 46.1787ZM92.826 38.7972C93.083 38.5769 93.413 38.5034 93.78 38.5034C94.809 38.5034 96.167 39.2746 97.196 40.56C98.591 42.3227 98.922 44.4527 97.93 45.2239C96.939 45.9951 94.956 45.1872 93.56 43.4612C92.862 42.5798 92.422 41.5882 92.275 40.6701C92.201 39.8255 92.385 39.1645 92.826 38.7972Z" fill="white"/>
<path d="M97.379 45.885C98.114 45.2975 97.783 43.6449 96.608 42.1759C95.433 40.7069 93.891 40.0092 93.156 40.5601C92.422 41.1476 92.752 42.8002 93.927 44.2692C95.102 45.7381 96.645 46.4726 97.379 45.885Z" fill="#191446"/>
<path d="M96.755 46.3991C97.085 46.3991 97.342 46.3257 97.6 46.1421C98.481 45.4443 98.15 43.6081 96.865 41.9922C96.277 41.2577 95.58 40.6702 94.882 40.3396C94.111 39.9724 93.45 39.9724 93.009 40.3396C92.128 41.0374 92.458 42.8736 93.744 44.4895C94.625 45.7014 95.837 46.3991 96.755 46.3991ZM93.34 40.8171C93.45 40.7436 93.597 40.6702 93.78 40.6702C94.001 40.6702 94.258 40.7436 94.551 40.8905C95.139 41.1843 95.8 41.6984 96.314 42.3595C97.453 43.7917 97.636 45.2239 97.159 45.6279C96.645 46.0319 95.286 45.481 94.184 44.0855C93.046 42.6533 92.825 41.221 93.34 40.8171Z" fill="#191446"/>
<path d="M97.746 42.8738C97.746 42.3964 97.342 41.9924 96.865 41.9924C96.387 41.9924 95.983 42.3964 95.983 42.8738C95.983 43.3512 96.387 43.7552 96.865 43.7552C97.342 43.7552 97.746 43.388 97.746 42.8738Z" fill="white"/>
<path d="M98.077 42.8738C98.077 42.2127 97.526 41.6619 96.865 41.6619C96.204 41.6619 95.653 42.2127 95.653 42.8738C95.653 43.5348 96.204 44.0856 96.865 44.0856C97.526 44.0856 98.077 43.5348 98.077 42.8738ZM96.314 42.8738C96.314 42.58 96.571 42.3229 96.865 42.3229C97.159 42.3229 97.416 42.58 97.416 42.8738C97.416 43.1675 97.159 43.4246 96.865 43.4246C96.571 43.4613 96.314 43.2043 96.314 42.8738Z" fill="white"/>
<path d="M89.006 36.2633C89.079 36.2633 89.19 36.2266 89.263 36.1899C89.263 36.1899 90.622 35.5289 91.76 35.2718C92.091 35.1983 92.311 34.8678 92.238 34.5006C92.164 34.1701 91.834 33.9497 91.466 34.0232C90.181 34.317 88.749 34.978 88.676 35.0147C88.345 35.1616 88.235 35.5289 88.382 35.8594C88.529 36.1165 88.749 36.2633 89.006 36.2633Z" fill="#62392C"/>
<path d="M101.676 56.535C101.345 56.4983 101.015 56.7554 100.978 57.0859C100.941 57.4164 101.198 57.7469 101.529 57.7836C101.566 57.7836 101.676 57.8204 101.896 57.8204C102.447 57.8204 103.512 57.7102 104.173 56.939C104.761 56.2412 104.871 55.2497 104.504 53.9643C104.393 53.6338 104.063 53.4502 103.732 53.5236C103.402 53.6338 103.218 53.9643 103.292 54.2948C103.475 54.8824 103.585 55.6536 103.218 56.0943C102.851 56.5717 101.97 56.5717 101.676 56.535Z" fill="#62392C"/>
<path d="M117.431 32.2237C117.1 32.187 116.77 32.4441 116.733 32.7746L116.145 37.9894C116.109 38.2097 116.219 38.4301 116.366 38.5403C116.476 38.6504 116.623 38.6871 116.77 38.6871C116.843 38.6871 116.916 38.6871 116.953 38.6504L122.095 36.9611C122.425 36.8509 122.609 36.4837 122.498 36.1532C122.388 35.8227 122.021 35.639 121.691 35.7492L117.504 37.1447L117.982 32.9215C118.018 32.5542 117.761 32.2604 117.431 32.2237Z" fill="#62392C"/>
<path d="M121.25 13.5681C121.286 13.8986 121.544 14.1557 121.874 14.1557H121.911C122.241 14.119 122.535 13.8252 122.498 13.4947C122.351 11.1076 119.524 8.5369 119.377 8.4635C119.12 8.2431 118.716 8.2431 118.495 8.5369C118.275 8.794 118.275 9.198 118.569 9.4183C119.267 10.0059 121.14 11.989 121.25 13.5681Z" fill="#E46790"/>
<path d="M80.559 32.7013C81.477 32.7013 82.506 32.6279 83.497 32.4442C83.828 32.3708 84.048 32.0403 84.011 31.7098C83.938 31.3792 83.607 31.1589 83.277 31.1956C80.596 31.7098 77.585 31.1956 77.548 31.1956C77.217 31.1589 76.887 31.3792 76.813 31.7098C76.74 32.0403 76.997 32.3708 77.328 32.4442C77.401 32.4442 78.76 32.7013 80.559 32.7013Z" fill="#E46790"/>
<path d="M83.387 30.1671C84.673 30.1671 86.399 29.9468 87.794 29.1021C88.088 28.9185 88.198 28.5145 88.014 28.2208C87.831 27.927 87.427 27.8168 87.133 28.0004C84.93 29.3592 81.661 28.7349 81.625 28.7349C81.294 28.6614 80.963 28.8818 80.89 29.249C80.817 29.5796 81.037 29.9101 81.404 29.9835C81.441 30.0202 82.249 30.1671 83.387 30.1671Z" fill="#E46790"/>
<path d="M161.977 165.348C162.491 165.348 165.869 165.165 167.191 160.611C167.302 160.28 167.081 159.913 166.751 159.84C166.42 159.73 166.053 159.95 165.98 160.28C164.841 164.173 162.087 164.1 161.977 164.1C161.573 164.063 161.316 164.357 161.316 164.687C161.279 165.055 161.573 165.348 161.903 165.348C161.94 165.348 161.94 165.348 161.977 165.348Z" fill="#F9AE82"/>
<path d="M161.683 169.168C163.372 169.168 165.796 168.764 167.155 166.67C167.338 166.377 167.265 165.973 166.971 165.789C166.677 165.605 166.273 165.679 166.09 165.973C164.4 168.58 160.177 167.772 160.14 167.772C159.81 167.699 159.479 167.919 159.406 168.25C159.332 168.58 159.553 168.911 159.883 168.984C159.92 169.021 160.691 169.168 161.683 169.168Z" fill="#F9AE82"/>
<path d="M94.588 108.757C94.625 108.757 98.187 108.316 100.905 108.757C100.941 108.757 100.978 108.757 101.015 108.757C101.308 108.757 101.602 108.536 101.639 108.243C101.712 107.912 101.455 107.582 101.125 107.508C98.224 107.031 94.588 107.471 94.441 107.508C94.111 107.545 93.853 107.875 93.89 108.206C93.927 108.536 94.221 108.793 94.588 108.757Z" fill="#F9AE82"/>
<path d="M96.387 156.351C96.718 156.241 96.902 155.874 96.791 155.543C96.681 155.213 96.314 155.029 95.983 155.139C92.348 156.314 89.63 156.314 89.594 156.314C89.226 156.314 88.969 156.608 88.969 156.939C88.969 157.306 89.263 157.563 89.594 157.563C89.74 157.6 92.531 157.6 96.387 156.351Z" fill="#F9AE82"/>
<path d="M48.9767 211.474C48.6462 211.437 48.3157 211.657 48.2422 211.988C48.2055 212.135 47.6914 215.44 49.3439 220.618C49.4174 220.875 49.6745 221.059 49.9316 221.059C50.005 221.059 50.0784 221.059 50.1152 221.022C50.4457 220.912 50.6293 220.545 50.5191 220.214C48.9767 215.366 49.4541 212.208 49.4541 212.171C49.5643 211.878 49.3439 211.547 48.9767 211.474Z" fill="#F9AE82"/>
<path d="M51.5839 207.397C51.2534 207.324 50.9228 207.581 50.8494 207.912C50.8127 208.095 50.1149 212.355 50.8494 216.358C50.9228 216.652 51.1799 216.872 51.4737 216.872C51.5104 216.872 51.5472 216.872 51.5839 216.872C51.9144 216.799 52.1714 216.468 52.098 216.138C51.4002 212.318 52.098 208.169 52.098 208.132C52.1347 207.801 51.9144 207.471 51.5839 207.397Z" fill="#F9AE82"/>
<path d="M126.648 20.5087H126.685C127.016 20.472 127.309 20.1782 127.273 19.8477C126.979 15.147 125.363 12.2458 125.29 12.0989C125.106 11.8052 124.739 11.695 124.445 11.8786C124.151 12.0622 124.041 12.4295 124.225 12.7233C124.225 12.76 125.767 15.5143 126.024 19.9212C126.024 20.2517 126.281 20.5087 126.648 20.5087Z" fill="#E46790"/>
</svg>
