<svg width="592" height="341" viewBox="0 0 592 341" fill="none" xmlns="http://www.w3.org/2000/svg">
<path d="M560 0C577.673 8.76194e-06 592 14.3269 592 32V97.8274C592 109.227 579.4 117 568 117C538.729 117 515 140.729 515 170C515 199.271 538.729 223 568 223C579.4 223 592 230.772 592 242.172V309C592 326.673 577.673 341 560 341H32C14.3269 341 0 326.673 0 309V242.172C0 230.772 12.6002 223 24 223C53.2711 223 77 199.271 77 170C77 140.729 53.2711 117 24 117C12.6002 117 0 109.227 0 97.8274V32C5.47654e-06 14.3269 14.3269 0 32 0H560Z" fill="#F45B5B"/>
</svg>
